M48
; DRILL file KiCad 10.0.5 date 2026-08-09T09:16:40
; FORMAT={-:-/ absolute / metric / decimal}
; #@! TF.CreationDate,2026-08-09T09:16:40-06:00
; #@! TF.GenerationSoftware,Kicad,Pcbnew,10.0.5
; #@! TF.FileFunction,Plated,1,2,PTH
FMAT,2
METRIC
; #@! TA.AperFunction,Plated,PTH,ViaDrill
T1C0.300
; #@! TA.AperFunction,Plated,PTH,ComponentDrill
T2C1.000
; #@! TA.AperFunction,Plated,PTH,ComponentDrill
T3C1.300
%
G90
G05
T1
X126.575Y-83.075
X126.575Y-85.075
X126.575Y-87.075
X126.575Y-89.075
X126.575Y-91.075
X126.575Y-93.075
X126.575Y-95.075
X126.575Y-97.075
X126.575Y-99.075
X126.575Y-101.075
X126.575Y-103.075
X126.575Y-105.075
X126.575Y-107.075
X126.575Y-109.075
X126.575Y-111.075
X126.575Y-113.075
X126.575Y-115.075
X126.575Y-117.075
X128.575Y-83.075
X128.575Y-85.075
X128.575Y-87.075
X128.575Y-89.075
X128.575Y-91.075
X128.575Y-93.075
X128.575Y-95.075
X128.575Y-97.075
X128.575Y-99.075
X128.575Y-101.075
X128.575Y-103.075
X128.575Y-105.075
X128.575Y-107.075
X128.575Y-109.075
X128.575Y-111.075
X128.575Y-113.075
X128.575Y-115.075
X128.575Y-117.075
X130.575Y-113.075
X136.575Y-83.075
X136.575Y-97.075
X136.575Y-99.075
X136.575Y-117.075
X138.575Y-83.075
X138.575Y-85.075
X138.575Y-115.075
X138.575Y-117.075
X140.575Y-83.075
X140.575Y-85.075
X140.575Y-87.075
X140.575Y-113.075
X140.575Y-115.075
X140.575Y-117.075
X142.575Y-83.075
X142.575Y-85.075
X142.575Y-87.075
X142.575Y-113.075
X142.575Y-115.075
X142.575Y-117.075
X144.575Y-83.075
X144.575Y-85.075
X144.575Y-87.075
X144.575Y-89.075
X144.575Y-111.075
X144.575Y-113.075
X144.575Y-115.075
X144.575Y-117.075
X146.575Y-83.075
X146.575Y-85.075
X146.575Y-87.075
X146.575Y-89.075
X146.575Y-111.075
X146.575Y-113.075
X146.575Y-115.075
X146.575Y-117.075
X148.575Y-83.075
X148.575Y-85.075
X148.575Y-87.075
X148.575Y-89.075
X148.575Y-111.075
X148.575Y-113.075
X148.575Y-115.075
X148.575Y-117.075
X150.575Y-83.075
X150.575Y-85.075
X150.575Y-87.075
X150.575Y-93.075
X150.575Y-95.075
X150.575Y-97.075
X150.575Y-99.075
X150.575Y-101.075
X150.575Y-103.075
X150.575Y-105.075
X150.575Y-107.075
X150.575Y-113.075
X150.575Y-115.075
X150.575Y-117.075
X152.575Y-83.075
X152.575Y-85.075
X152.575Y-87.075
X152.575Y-93.075
X152.575Y-95.075
X152.575Y-97.075
X152.575Y-99.075
X152.575Y-101.075
X152.575Y-103.075
X152.575Y-105.075
X152.575Y-107.075
X152.575Y-113.075
X152.575Y-115.075
X152.575Y-117.075
T2
X142.05Y-89.84
X142.05Y-92.38
X142.05Y-94.92
X142.05Y-97.46
X142.05Y-100.0
X142.05Y-102.54
X142.05Y-105.08
X142.05Y-107.62
X142.05Y-110.16
T3
X132.65Y-84.16
X132.65Y-88.12
X132.65Y-92.08
X132.65Y-96.04
X132.65Y-100.0
X132.65Y-103.96
X132.65Y-107.92
X132.65Y-111.88
X132.65Y-115.84
M30
