%TF.GenerationSoftware,KiCad,Pcbnew,10.0.5*%
%TF.CreationDate,2026-08-09T09:16:11-06:00*%
%TF.ProjectId,SNAC EDU,534e4143-2045-4445-952e-6b696361645f,rev?*%
%TF.SameCoordinates,Original*%
%TF.FileFunction,Legend,Top*%
%TF.FilePolarity,Positive*%
%FSLAX46Y46*%
G04 Gerber Fmt 4.6, Leading zero omitted, Abs format (unit mm)*
G04 Created by KiCad (PCBNEW 10.0.5) date 2026-08-09 09:16:11*
%MOMM*%
%LPD*%
G01*
G04 APERTURE LIST*
%ADD10C,0.300000*%
%ADD11C,0.200000*%
%ADD12C,0.150000*%
%ADD13C,0.120000*%
G04 APERTURE END LIST*
D10*
X164726190Y-105909638D02*
X163773809Y-105909638D01*
X163773809Y-105909638D02*
X163678571Y-106862019D01*
X163678571Y-106862019D02*
X163773809Y-106766780D01*
X163773809Y-106766780D02*
X163964285Y-106671542D01*
X163964285Y-106671542D02*
X164440476Y-106671542D01*
X164440476Y-106671542D02*
X164630952Y-106766780D01*
X164630952Y-106766780D02*
X164726190Y-106862019D01*
X164726190Y-106862019D02*
X164821428Y-107052495D01*
X164821428Y-107052495D02*
X164821428Y-107528685D01*
X164821428Y-107528685D02*
X164726190Y-107719161D01*
X164726190Y-107719161D02*
X164630952Y-107814400D01*
X164630952Y-107814400D02*
X164440476Y-107909638D01*
X164440476Y-107909638D02*
X163964285Y-107909638D01*
X163964285Y-107909638D02*
X163773809Y-107814400D01*
X163773809Y-107814400D02*
X163678571Y-107719161D01*
X137209638Y-138101190D02*
X135209638Y-138101190D01*
X135209638Y-138101190D02*
X135209638Y-137339285D01*
X135209638Y-137339285D02*
X135304876Y-137148809D01*
X135304876Y-137148809D02*
X135400114Y-137053571D01*
X135400114Y-137053571D02*
X135590590Y-136958333D01*
X135590590Y-136958333D02*
X135876304Y-136958333D01*
X135876304Y-136958333D02*
X136066780Y-137053571D01*
X136066780Y-137053571D02*
X136162019Y-137148809D01*
X136162019Y-137148809D02*
X136257257Y-137339285D01*
X136257257Y-137339285D02*
X136257257Y-138101190D01*
X135400114Y-136196428D02*
X135304876Y-136101190D01*
X135304876Y-136101190D02*
X135209638Y-135910714D01*
X135209638Y-135910714D02*
X135209638Y-135434523D01*
X135209638Y-135434523D02*
X135304876Y-135244047D01*
X135304876Y-135244047D02*
X135400114Y-135148809D01*
X135400114Y-135148809D02*
X135590590Y-135053571D01*
X135590590Y-135053571D02*
X135781066Y-135053571D01*
X135781066Y-135053571D02*
X136066780Y-135148809D01*
X136066780Y-135148809D02*
X137209638Y-136291666D01*
X137209638Y-136291666D02*
X137209638Y-135053571D01*
X158503333Y-105909638D02*
X159741428Y-105909638D01*
X159741428Y-105909638D02*
X159074761Y-106671542D01*
X159074761Y-106671542D02*
X159360476Y-106671542D01*
X159360476Y-106671542D02*
X159550952Y-106766780D01*
X159550952Y-106766780D02*
X159646190Y-106862019D01*
X159646190Y-106862019D02*
X159741428Y-107052495D01*
X159741428Y-107052495D02*
X159741428Y-107528685D01*
X159741428Y-107528685D02*
X159646190Y-107719161D01*
X159646190Y-107719161D02*
X159550952Y-107814400D01*
X159550952Y-107814400D02*
X159360476Y-107909638D01*
X159360476Y-107909638D02*
X158789047Y-107909638D01*
X158789047Y-107909638D02*
X158598571Y-107814400D01*
X158598571Y-107814400D02*
X158503333Y-107719161D01*
X152073809Y-106004876D02*
X151883333Y-105909638D01*
X151883333Y-105909638D02*
X151597619Y-105909638D01*
X151597619Y-105909638D02*
X151311904Y-106004876D01*
X151311904Y-106004876D02*
X151121428Y-106195352D01*
X151121428Y-106195352D02*
X151026190Y-106385828D01*
X151026190Y-106385828D02*
X150930952Y-106766780D01*
X150930952Y-106766780D02*
X150930952Y-107052495D01*
X150930952Y-107052495D02*
X151026190Y-107433447D01*
X151026190Y-107433447D02*
X151121428Y-107623923D01*
X151121428Y-107623923D02*
X151311904Y-107814400D01*
X151311904Y-107814400D02*
X151597619Y-107909638D01*
X151597619Y-107909638D02*
X151788095Y-107909638D01*
X151788095Y-107909638D02*
X152073809Y-107814400D01*
X152073809Y-107814400D02*
X152169047Y-107719161D01*
X152169047Y-107719161D02*
X152169047Y-107052495D01*
X152169047Y-107052495D02*
X151788095Y-107052495D01*
X168663333Y-105909638D02*
X169996666Y-105909638D01*
X169996666Y-105909638D02*
X169139523Y-107909638D01*
D11*
X171928006Y-104206028D02*
X171213720Y-104206028D01*
X171213720Y-104206028D02*
X171213720Y-102706028D01*
X172213721Y-102706028D02*
X172713721Y-104206028D01*
X172713721Y-104206028D02*
X173213721Y-102706028D01*
D10*
X154661428Y-107909638D02*
X153518571Y-107909638D01*
X154089999Y-107909638D02*
X154089999Y-105909638D01*
X154089999Y-105909638D02*
X153899523Y-106195352D01*
X153899523Y-106195352D02*
X153709047Y-106385828D01*
X153709047Y-106385828D02*
X153518571Y-106481066D01*
X167170952Y-105909638D02*
X166789999Y-105909638D01*
X166789999Y-105909638D02*
X166599523Y-106004876D01*
X166599523Y-106004876D02*
X166504285Y-106100114D01*
X166504285Y-106100114D02*
X166313809Y-106385828D01*
X166313809Y-106385828D02*
X166218571Y-106766780D01*
X166218571Y-106766780D02*
X166218571Y-107528685D01*
X166218571Y-107528685D02*
X166313809Y-107719161D01*
X166313809Y-107719161D02*
X166409047Y-107814400D01*
X166409047Y-107814400D02*
X166599523Y-107909638D01*
X166599523Y-107909638D02*
X166980476Y-107909638D01*
X166980476Y-107909638D02*
X167170952Y-107814400D01*
X167170952Y-107814400D02*
X167266190Y-107719161D01*
X167266190Y-107719161D02*
X167361428Y-107528685D01*
X167361428Y-107528685D02*
X167361428Y-107052495D01*
X167361428Y-107052495D02*
X167266190Y-106862019D01*
X167266190Y-106862019D02*
X167170952Y-106766780D01*
X167170952Y-106766780D02*
X166980476Y-106671542D01*
X166980476Y-106671542D02*
X166599523Y-106671542D01*
X166599523Y-106671542D02*
X166409047Y-106766780D01*
X166409047Y-106766780D02*
X166313809Y-106862019D01*
X166313809Y-106862019D02*
X166218571Y-107052495D01*
X137209638Y-114851190D02*
X135209638Y-114851190D01*
X135209638Y-114851190D02*
X135209638Y-114089285D01*
X135209638Y-114089285D02*
X135304876Y-113898809D01*
X135304876Y-113898809D02*
X135400114Y-113803571D01*
X135400114Y-113803571D02*
X135590590Y-113708333D01*
X135590590Y-113708333D02*
X135876304Y-113708333D01*
X135876304Y-113708333D02*
X136066780Y-113803571D01*
X136066780Y-113803571D02*
X136162019Y-113898809D01*
X136162019Y-113898809D02*
X136257257Y-114089285D01*
X136257257Y-114089285D02*
X136257257Y-114851190D01*
X137209638Y-111803571D02*
X137209638Y-112946428D01*
X137209638Y-112375000D02*
X135209638Y-112375000D01*
X135209638Y-112375000D02*
X135495352Y-112565476D01*
X135495352Y-112565476D02*
X135685828Y-112755952D01*
X135685828Y-112755952D02*
X135781066Y-112946428D01*
X162090952Y-106576304D02*
X162090952Y-107909638D01*
X161614761Y-105814400D02*
X161138571Y-107242971D01*
X161138571Y-107242971D02*
X162376666Y-107242971D01*
D12*
X166184875Y-124797744D02*
X166184875Y-124607268D01*
X166184875Y-124607268D02*
X166232494Y-124512030D01*
X166232494Y-124512030D02*
X166327732Y-124416792D01*
X166327732Y-124416792D02*
X166518208Y-124369173D01*
X166518208Y-124369173D02*
X166851541Y-124369173D01*
X166851541Y-124369173D02*
X167042017Y-124416792D01*
X167042017Y-124416792D02*
X167137256Y-124512030D01*
X167137256Y-124512030D02*
X167184875Y-124607268D01*
X167184875Y-124607268D02*
X167184875Y-124797744D01*
X167184875Y-124797744D02*
X167137256Y-124892982D01*
X167137256Y-124892982D02*
X167042017Y-124988220D01*
X167042017Y-124988220D02*
X166851541Y-125035839D01*
X166851541Y-125035839D02*
X166518208Y-125035839D01*
X166518208Y-125035839D02*
X166327732Y-124988220D01*
X166327732Y-124988220D02*
X166232494Y-124892982D01*
X166232494Y-124892982D02*
X166184875Y-124797744D01*
X167184875Y-123940601D02*
X166184875Y-123940601D01*
X166184875Y-123940601D02*
X166184875Y-123559649D01*
X166184875Y-123559649D02*
X166232494Y-123464411D01*
X166232494Y-123464411D02*
X166280113Y-123416792D01*
X166280113Y-123416792D02*
X166375351Y-123369173D01*
X166375351Y-123369173D02*
X166518208Y-123369173D01*
X166518208Y-123369173D02*
X166613446Y-123416792D01*
X166613446Y-123416792D02*
X166661065Y-123464411D01*
X166661065Y-123464411D02*
X166708684Y-123559649D01*
X166708684Y-123559649D02*
X166708684Y-123940601D01*
X166661065Y-122940601D02*
X166661065Y-122607268D01*
X167184875Y-122464411D02*
X167184875Y-122940601D01*
X167184875Y-122940601D02*
X166184875Y-122940601D01*
X166184875Y-122940601D02*
X166184875Y-122464411D01*
X167184875Y-122035839D02*
X166184875Y-122035839D01*
X166184875Y-122035839D02*
X167184875Y-121464411D01*
X167184875Y-121464411D02*
X166184875Y-121464411D01*
X166661065Y-120226315D02*
X166661065Y-119464411D01*
X166946779Y-119464411D02*
X166946779Y-120226315D01*
X166184875Y-117750125D02*
X166184875Y-118226315D01*
X166184875Y-118226315D02*
X166661065Y-118273934D01*
X166661065Y-118273934D02*
X166613446Y-118226315D01*
X166613446Y-118226315D02*
X166565827Y-118131077D01*
X166565827Y-118131077D02*
X166565827Y-117892982D01*
X166565827Y-117892982D02*
X166613446Y-117797744D01*
X166613446Y-117797744D02*
X166661065Y-117750125D01*
X166661065Y-117750125D02*
X166756303Y-117702506D01*
X166756303Y-117702506D02*
X166994398Y-117702506D01*
X166994398Y-117702506D02*
X167089636Y-117750125D01*
X167089636Y-117750125D02*
X167137256Y-117797744D01*
X167137256Y-117797744D02*
X167184875Y-117892982D01*
X167184875Y-117892982D02*
X167184875Y-118131077D01*
X167184875Y-118131077D02*
X167137256Y-118226315D01*
X167137256Y-118226315D02*
X167089636Y-118273934D01*
X166184875Y-117416791D02*
X167184875Y-117083458D01*
X167184875Y-117083458D02*
X166184875Y-116750125D01*
X168699580Y-124416792D02*
X168747200Y-124464411D01*
X168747200Y-124464411D02*
X168794819Y-124607268D01*
X168794819Y-124607268D02*
X168794819Y-124702506D01*
X168794819Y-124702506D02*
X168747200Y-124845363D01*
X168747200Y-124845363D02*
X168651961Y-124940601D01*
X168651961Y-124940601D02*
X168556723Y-124988220D01*
X168556723Y-124988220D02*
X168366247Y-125035839D01*
X168366247Y-125035839D02*
X168223390Y-125035839D01*
X168223390Y-125035839D02*
X168032914Y-124988220D01*
X168032914Y-124988220D02*
X167937676Y-124940601D01*
X167937676Y-124940601D02*
X167842438Y-124845363D01*
X167842438Y-124845363D02*
X167794819Y-124702506D01*
X167794819Y-124702506D02*
X167794819Y-124607268D01*
X167794819Y-124607268D02*
X167842438Y-124464411D01*
X167842438Y-124464411D02*
X167890057Y-124416792D01*
X168794819Y-123512030D02*
X168794819Y-123988220D01*
X168794819Y-123988220D02*
X167794819Y-123988220D01*
X167794819Y-122988220D02*
X167794819Y-122797744D01*
X167794819Y-122797744D02*
X167842438Y-122702506D01*
X167842438Y-122702506D02*
X167937676Y-122607268D01*
X167937676Y-122607268D02*
X168128152Y-122559649D01*
X168128152Y-122559649D02*
X168461485Y-122559649D01*
X168461485Y-122559649D02*
X168651961Y-122607268D01*
X168651961Y-122607268D02*
X168747200Y-122702506D01*
X168747200Y-122702506D02*
X168794819Y-122797744D01*
X168794819Y-122797744D02*
X168794819Y-122988220D01*
X168794819Y-122988220D02*
X168747200Y-123083458D01*
X168747200Y-123083458D02*
X168651961Y-123178696D01*
X168651961Y-123178696D02*
X168461485Y-123226315D01*
X168461485Y-123226315D02*
X168128152Y-123226315D01*
X168128152Y-123226315D02*
X167937676Y-123178696D01*
X167937676Y-123178696D02*
X167842438Y-123083458D01*
X167842438Y-123083458D02*
X167794819Y-122988220D01*
X168747200Y-122178696D02*
X168794819Y-122035839D01*
X168794819Y-122035839D02*
X168794819Y-121797744D01*
X168794819Y-121797744D02*
X168747200Y-121702506D01*
X168747200Y-121702506D02*
X168699580Y-121654887D01*
X168699580Y-121654887D02*
X168604342Y-121607268D01*
X168604342Y-121607268D02*
X168509104Y-121607268D01*
X168509104Y-121607268D02*
X168413866Y-121654887D01*
X168413866Y-121654887D02*
X168366247Y-121702506D01*
X168366247Y-121702506D02*
X168318628Y-121797744D01*
X168318628Y-121797744D02*
X168271009Y-121988220D01*
X168271009Y-121988220D02*
X168223390Y-122083458D01*
X168223390Y-122083458D02*
X168175771Y-122131077D01*
X168175771Y-122131077D02*
X168080533Y-122178696D01*
X168080533Y-122178696D02*
X167985295Y-122178696D01*
X167985295Y-122178696D02*
X167890057Y-122131077D01*
X167890057Y-122131077D02*
X167842438Y-122083458D01*
X167842438Y-122083458D02*
X167794819Y-121988220D01*
X167794819Y-121988220D02*
X167794819Y-121750125D01*
X167794819Y-121750125D02*
X167842438Y-121607268D01*
X168271009Y-121178696D02*
X168271009Y-120845363D01*
X168794819Y-120702506D02*
X168794819Y-121178696D01*
X168794819Y-121178696D02*
X167794819Y-121178696D01*
X167794819Y-121178696D02*
X167794819Y-120702506D01*
X168794819Y-120273934D02*
X167794819Y-120273934D01*
X167794819Y-120273934D02*
X167794819Y-120035839D01*
X167794819Y-120035839D02*
X167842438Y-119892982D01*
X167842438Y-119892982D02*
X167937676Y-119797744D01*
X167937676Y-119797744D02*
X168032914Y-119750125D01*
X168032914Y-119750125D02*
X168223390Y-119702506D01*
X168223390Y-119702506D02*
X168366247Y-119702506D01*
X168366247Y-119702506D02*
X168556723Y-119750125D01*
X168556723Y-119750125D02*
X168651961Y-119797744D01*
X168651961Y-119797744D02*
X168747200Y-119892982D01*
X168747200Y-119892982D02*
X168794819Y-120035839D01*
X168794819Y-120035839D02*
X168794819Y-120273934D01*
X168271009Y-118512029D02*
X168271009Y-117750125D01*
X168556723Y-117750125D02*
X168556723Y-118512029D01*
X167794819Y-116607267D02*
X167794819Y-115988220D01*
X167794819Y-115988220D02*
X168175771Y-116321553D01*
X168175771Y-116321553D02*
X168175771Y-116178696D01*
X168175771Y-116178696D02*
X168223390Y-116083458D01*
X168223390Y-116083458D02*
X168271009Y-116035839D01*
X168271009Y-116035839D02*
X168366247Y-115988220D01*
X168366247Y-115988220D02*
X168604342Y-115988220D01*
X168604342Y-115988220D02*
X168699580Y-116035839D01*
X168699580Y-116035839D02*
X168747200Y-116083458D01*
X168747200Y-116083458D02*
X168794819Y-116178696D01*
X168794819Y-116178696D02*
X168794819Y-116464410D01*
X168794819Y-116464410D02*
X168747200Y-116559648D01*
X168747200Y-116559648D02*
X168699580Y-116607267D01*
X168699580Y-115559648D02*
X168747200Y-115512029D01*
X168747200Y-115512029D02*
X168794819Y-115559648D01*
X168794819Y-115559648D02*
X168747200Y-115607267D01*
X168747200Y-115607267D02*
X168699580Y-115559648D01*
X168699580Y-115559648D02*
X168794819Y-115559648D01*
X167794819Y-115178696D02*
X167794819Y-114559649D01*
X167794819Y-114559649D02*
X168175771Y-114892982D01*
X168175771Y-114892982D02*
X168175771Y-114750125D01*
X168175771Y-114750125D02*
X168223390Y-114654887D01*
X168223390Y-114654887D02*
X168271009Y-114607268D01*
X168271009Y-114607268D02*
X168366247Y-114559649D01*
X168366247Y-114559649D02*
X168604342Y-114559649D01*
X168604342Y-114559649D02*
X168699580Y-114607268D01*
X168699580Y-114607268D02*
X168747200Y-114654887D01*
X168747200Y-114654887D02*
X168794819Y-114750125D01*
X168794819Y-114750125D02*
X168794819Y-115035839D01*
X168794819Y-115035839D02*
X168747200Y-115131077D01*
X168747200Y-115131077D02*
X168699580Y-115178696D01*
X167794819Y-114273934D02*
X168794819Y-113940601D01*
X168794819Y-113940601D02*
X167794819Y-113607268D01*
D10*
X156058571Y-106100114D02*
X156153809Y-106004876D01*
X156153809Y-106004876D02*
X156344285Y-105909638D01*
X156344285Y-105909638D02*
X156820476Y-105909638D01*
X156820476Y-105909638D02*
X157010952Y-106004876D01*
X157010952Y-106004876D02*
X157106190Y-106100114D01*
X157106190Y-106100114D02*
X157201428Y-106290590D01*
X157201428Y-106290590D02*
X157201428Y-106481066D01*
X157201428Y-106481066D02*
X157106190Y-106766780D01*
X157106190Y-106766780D02*
X155963333Y-107909638D01*
X155963333Y-107909638D02*
X157201428Y-107909638D01*
D11*
X171213720Y-112206028D02*
X171213720Y-110706028D01*
X171213720Y-111420314D02*
X172070863Y-111420314D01*
X172070863Y-112206028D02*
X172070863Y-110706028D01*
X172570864Y-110706028D02*
X173070864Y-112206028D01*
X173070864Y-112206028D02*
X173570864Y-110706028D01*
D12*
X155279819Y-142391666D02*
X154803628Y-142724999D01*
X155279819Y-142963094D02*
X154279819Y-142963094D01*
X154279819Y-142963094D02*
X154279819Y-142582142D01*
X154279819Y-142582142D02*
X154327438Y-142486904D01*
X154327438Y-142486904D02*
X154375057Y-142439285D01*
X154375057Y-142439285D02*
X154470295Y-142391666D01*
X154470295Y-142391666D02*
X154613152Y-142391666D01*
X154613152Y-142391666D02*
X154708390Y-142439285D01*
X154708390Y-142439285D02*
X154756009Y-142486904D01*
X154756009Y-142486904D02*
X154803628Y-142582142D01*
X154803628Y-142582142D02*
X154803628Y-142963094D01*
X154375057Y-142010713D02*
X154327438Y-141963094D01*
X154327438Y-141963094D02*
X154279819Y-141867856D01*
X154279819Y-141867856D02*
X154279819Y-141629761D01*
X154279819Y-141629761D02*
X154327438Y-141534523D01*
X154327438Y-141534523D02*
X154375057Y-141486904D01*
X154375057Y-141486904D02*
X154470295Y-141439285D01*
X154470295Y-141439285D02*
X154565533Y-141439285D01*
X154565533Y-141439285D02*
X154708390Y-141486904D01*
X154708390Y-141486904D02*
X155279819Y-142058332D01*
X155279819Y-142058332D02*
X155279819Y-141439285D01*
X145904819Y-143341666D02*
X145428628Y-143674999D01*
X145904819Y-143913094D02*
X144904819Y-143913094D01*
X144904819Y-143913094D02*
X144904819Y-143532142D01*
X144904819Y-143532142D02*
X144952438Y-143436904D01*
X144952438Y-143436904D02*
X145000057Y-143389285D01*
X145000057Y-143389285D02*
X145095295Y-143341666D01*
X145095295Y-143341666D02*
X145238152Y-143341666D01*
X145238152Y-143341666D02*
X145333390Y-143389285D01*
X145333390Y-143389285D02*
X145381009Y-143436904D01*
X145381009Y-143436904D02*
X145428628Y-143532142D01*
X145428628Y-143532142D02*
X145428628Y-143913094D01*
X145904819Y-142389285D02*
X145904819Y-142960713D01*
X145904819Y-142674999D02*
X144904819Y-142674999D01*
X144904819Y-142674999D02*
X145047676Y-142770237D01*
X145047676Y-142770237D02*
X145142914Y-142865475D01*
X145142914Y-142865475D02*
X145190533Y-142960713D01*
X141416666Y-103504819D02*
X141416666Y-104219104D01*
X141416666Y-104219104D02*
X141369047Y-104361961D01*
X141369047Y-104361961D02*
X141273809Y-104457200D01*
X141273809Y-104457200D02*
X141130952Y-104504819D01*
X141130952Y-104504819D02*
X141035714Y-104504819D01*
X141892857Y-104504819D02*
X141892857Y-103504819D01*
X141892857Y-103504819D02*
X142273809Y-103504819D01*
X142273809Y-103504819D02*
X142369047Y-103552438D01*
X142369047Y-103552438D02*
X142416666Y-103600057D01*
X142416666Y-103600057D02*
X142464285Y-103695295D01*
X142464285Y-103695295D02*
X142464285Y-103838152D01*
X142464285Y-103838152D02*
X142416666Y-103933390D01*
X142416666Y-103933390D02*
X142369047Y-103981009D01*
X142369047Y-103981009D02*
X142273809Y-104028628D01*
X142273809Y-104028628D02*
X141892857Y-104028628D01*
X142797619Y-103504819D02*
X143416666Y-103504819D01*
X143416666Y-103504819D02*
X143083333Y-103885771D01*
X143083333Y-103885771D02*
X143226190Y-103885771D01*
X143226190Y-103885771D02*
X143321428Y-103933390D01*
X143321428Y-103933390D02*
X143369047Y-103981009D01*
X143369047Y-103981009D02*
X143416666Y-104076247D01*
X143416666Y-104076247D02*
X143416666Y-104314342D01*
X143416666Y-104314342D02*
X143369047Y-104409580D01*
X143369047Y-104409580D02*
X143321428Y-104457200D01*
X143321428Y-104457200D02*
X143226190Y-104504819D01*
X143226190Y-104504819D02*
X142940476Y-104504819D01*
X142940476Y-104504819D02*
X142845238Y-104457200D01*
X142845238Y-104457200D02*
X142797619Y-104409580D01*
X176566666Y-126679819D02*
X176566666Y-127394104D01*
X176566666Y-127394104D02*
X176519047Y-127536961D01*
X176519047Y-127536961D02*
X176423809Y-127632200D01*
X176423809Y-127632200D02*
X176280952Y-127679819D01*
X176280952Y-127679819D02*
X176185714Y-127679819D01*
X177042857Y-127679819D02*
X177042857Y-126679819D01*
X177042857Y-126679819D02*
X177423809Y-126679819D01*
X177423809Y-126679819D02*
X177519047Y-126727438D01*
X177519047Y-126727438D02*
X177566666Y-126775057D01*
X177566666Y-126775057D02*
X177614285Y-126870295D01*
X177614285Y-126870295D02*
X177614285Y-127013152D01*
X177614285Y-127013152D02*
X177566666Y-127108390D01*
X177566666Y-127108390D02*
X177519047Y-127156009D01*
X177519047Y-127156009D02*
X177423809Y-127203628D01*
X177423809Y-127203628D02*
X177042857Y-127203628D01*
X178185714Y-127108390D02*
X178090476Y-127060771D01*
X178090476Y-127060771D02*
X178042857Y-127013152D01*
X178042857Y-127013152D02*
X177995238Y-126917914D01*
X177995238Y-126917914D02*
X177995238Y-126870295D01*
X177995238Y-126870295D02*
X178042857Y-126775057D01*
X178042857Y-126775057D02*
X178090476Y-126727438D01*
X178090476Y-126727438D02*
X178185714Y-126679819D01*
X178185714Y-126679819D02*
X178376190Y-126679819D01*
X178376190Y-126679819D02*
X178471428Y-126727438D01*
X178471428Y-126727438D02*
X178519047Y-126775057D01*
X178519047Y-126775057D02*
X178566666Y-126870295D01*
X178566666Y-126870295D02*
X178566666Y-126917914D01*
X178566666Y-126917914D02*
X178519047Y-127013152D01*
X178519047Y-127013152D02*
X178471428Y-127060771D01*
X178471428Y-127060771D02*
X178376190Y-127108390D01*
X178376190Y-127108390D02*
X178185714Y-127108390D01*
X178185714Y-127108390D02*
X178090476Y-127156009D01*
X178090476Y-127156009D02*
X178042857Y-127203628D01*
X178042857Y-127203628D02*
X177995238Y-127298866D01*
X177995238Y-127298866D02*
X177995238Y-127489342D01*
X177995238Y-127489342D02*
X178042857Y-127584580D01*
X178042857Y-127584580D02*
X178090476Y-127632200D01*
X178090476Y-127632200D02*
X178185714Y-127679819D01*
X178185714Y-127679819D02*
X178376190Y-127679819D01*
X178376190Y-127679819D02*
X178471428Y-127632200D01*
X178471428Y-127632200D02*
X178519047Y-127584580D01*
X178519047Y-127584580D02*
X178566666Y-127489342D01*
X178566666Y-127489342D02*
X178566666Y-127298866D01*
X178566666Y-127298866D02*
X178519047Y-127203628D01*
X178519047Y-127203628D02*
X178471428Y-127156009D01*
X178471428Y-127156009D02*
X178376190Y-127108390D01*
X155279819Y-126867857D02*
X154803628Y-127201190D01*
X155279819Y-127439285D02*
X154279819Y-127439285D01*
X154279819Y-127439285D02*
X154279819Y-127058333D01*
X154279819Y-127058333D02*
X154327438Y-126963095D01*
X154327438Y-126963095D02*
X154375057Y-126915476D01*
X154375057Y-126915476D02*
X154470295Y-126867857D01*
X154470295Y-126867857D02*
X154613152Y-126867857D01*
X154613152Y-126867857D02*
X154708390Y-126915476D01*
X154708390Y-126915476D02*
X154756009Y-126963095D01*
X154756009Y-126963095D02*
X154803628Y-127058333D01*
X154803628Y-127058333D02*
X154803628Y-127439285D01*
X155279819Y-125915476D02*
X155279819Y-126486904D01*
X155279819Y-126201190D02*
X154279819Y-126201190D01*
X154279819Y-126201190D02*
X154422676Y-126296428D01*
X154422676Y-126296428D02*
X154517914Y-126391666D01*
X154517914Y-126391666D02*
X154565533Y-126486904D01*
X154279819Y-125296428D02*
X154279819Y-125201190D01*
X154279819Y-125201190D02*
X154327438Y-125105952D01*
X154327438Y-125105952D02*
X154375057Y-125058333D01*
X154375057Y-125058333D02*
X154470295Y-125010714D01*
X154470295Y-125010714D02*
X154660771Y-124963095D01*
X154660771Y-124963095D02*
X154898866Y-124963095D01*
X154898866Y-124963095D02*
X155089342Y-125010714D01*
X155089342Y-125010714D02*
X155184580Y-125058333D01*
X155184580Y-125058333D02*
X155232200Y-125105952D01*
X155232200Y-125105952D02*
X155279819Y-125201190D01*
X155279819Y-125201190D02*
X155279819Y-125296428D01*
X155279819Y-125296428D02*
X155232200Y-125391666D01*
X155232200Y-125391666D02*
X155184580Y-125439285D01*
X155184580Y-125439285D02*
X155089342Y-125486904D01*
X155089342Y-125486904D02*
X154898866Y-125534523D01*
X154898866Y-125534523D02*
X154660771Y-125534523D01*
X154660771Y-125534523D02*
X154470295Y-125486904D01*
X154470295Y-125486904D02*
X154375057Y-125439285D01*
X154375057Y-125439285D02*
X154327438Y-125391666D01*
X154327438Y-125391666D02*
X154279819Y-125296428D01*
X155279819Y-130391666D02*
X154803628Y-130724999D01*
X155279819Y-130963094D02*
X154279819Y-130963094D01*
X154279819Y-130963094D02*
X154279819Y-130582142D01*
X154279819Y-130582142D02*
X154327438Y-130486904D01*
X154327438Y-130486904D02*
X154375057Y-130439285D01*
X154375057Y-130439285D02*
X154470295Y-130391666D01*
X154470295Y-130391666D02*
X154613152Y-130391666D01*
X154613152Y-130391666D02*
X154708390Y-130439285D01*
X154708390Y-130439285D02*
X154756009Y-130486904D01*
X154756009Y-130486904D02*
X154803628Y-130582142D01*
X154803628Y-130582142D02*
X154803628Y-130963094D01*
X154708390Y-129820237D02*
X154660771Y-129915475D01*
X154660771Y-129915475D02*
X154613152Y-129963094D01*
X154613152Y-129963094D02*
X154517914Y-130010713D01*
X154517914Y-130010713D02*
X154470295Y-130010713D01*
X154470295Y-130010713D02*
X154375057Y-129963094D01*
X154375057Y-129963094D02*
X154327438Y-129915475D01*
X154327438Y-129915475D02*
X154279819Y-129820237D01*
X154279819Y-129820237D02*
X154279819Y-129629761D01*
X154279819Y-129629761D02*
X154327438Y-129534523D01*
X154327438Y-129534523D02*
X154375057Y-129486904D01*
X154375057Y-129486904D02*
X154470295Y-129439285D01*
X154470295Y-129439285D02*
X154517914Y-129439285D01*
X154517914Y-129439285D02*
X154613152Y-129486904D01*
X154613152Y-129486904D02*
X154660771Y-129534523D01*
X154660771Y-129534523D02*
X154708390Y-129629761D01*
X154708390Y-129629761D02*
X154708390Y-129820237D01*
X154708390Y-129820237D02*
X154756009Y-129915475D01*
X154756009Y-129915475D02*
X154803628Y-129963094D01*
X154803628Y-129963094D02*
X154898866Y-130010713D01*
X154898866Y-130010713D02*
X155089342Y-130010713D01*
X155089342Y-130010713D02*
X155184580Y-129963094D01*
X155184580Y-129963094D02*
X155232200Y-129915475D01*
X155232200Y-129915475D02*
X155279819Y-129820237D01*
X155279819Y-129820237D02*
X155279819Y-129629761D01*
X155279819Y-129629761D02*
X155232200Y-129534523D01*
X155232200Y-129534523D02*
X155184580Y-129486904D01*
X155184580Y-129486904D02*
X155089342Y-129439285D01*
X155089342Y-129439285D02*
X154898866Y-129439285D01*
X154898866Y-129439285D02*
X154803628Y-129486904D01*
X154803628Y-129486904D02*
X154756009Y-129534523D01*
X154756009Y-129534523D02*
X154708390Y-129629761D01*
X155279819Y-134391666D02*
X154803628Y-134724999D01*
X155279819Y-134963094D02*
X154279819Y-134963094D01*
X154279819Y-134963094D02*
X154279819Y-134582142D01*
X154279819Y-134582142D02*
X154327438Y-134486904D01*
X154327438Y-134486904D02*
X154375057Y-134439285D01*
X154375057Y-134439285D02*
X154470295Y-134391666D01*
X154470295Y-134391666D02*
X154613152Y-134391666D01*
X154613152Y-134391666D02*
X154708390Y-134439285D01*
X154708390Y-134439285D02*
X154756009Y-134486904D01*
X154756009Y-134486904D02*
X154803628Y-134582142D01*
X154803628Y-134582142D02*
X154803628Y-134963094D01*
X154279819Y-133534523D02*
X154279819Y-133724999D01*
X154279819Y-133724999D02*
X154327438Y-133820237D01*
X154327438Y-133820237D02*
X154375057Y-133867856D01*
X154375057Y-133867856D02*
X154517914Y-133963094D01*
X154517914Y-133963094D02*
X154708390Y-134010713D01*
X154708390Y-134010713D02*
X155089342Y-134010713D01*
X155089342Y-134010713D02*
X155184580Y-133963094D01*
X155184580Y-133963094D02*
X155232200Y-133915475D01*
X155232200Y-133915475D02*
X155279819Y-133820237D01*
X155279819Y-133820237D02*
X155279819Y-133629761D01*
X155279819Y-133629761D02*
X155232200Y-133534523D01*
X155232200Y-133534523D02*
X155184580Y-133486904D01*
X155184580Y-133486904D02*
X155089342Y-133439285D01*
X155089342Y-133439285D02*
X154851247Y-133439285D01*
X154851247Y-133439285D02*
X154756009Y-133486904D01*
X154756009Y-133486904D02*
X154708390Y-133534523D01*
X154708390Y-133534523D02*
X154660771Y-133629761D01*
X154660771Y-133629761D02*
X154660771Y-133820237D01*
X154660771Y-133820237D02*
X154708390Y-133915475D01*
X154708390Y-133915475D02*
X154756009Y-133963094D01*
X154756009Y-133963094D02*
X154851247Y-134010713D01*
X158732142Y-120579819D02*
X158398809Y-120103628D01*
X158160714Y-120579819D02*
X158160714Y-119579819D01*
X158160714Y-119579819D02*
X158541666Y-119579819D01*
X158541666Y-119579819D02*
X158636904Y-119627438D01*
X158636904Y-119627438D02*
X158684523Y-119675057D01*
X158684523Y-119675057D02*
X158732142Y-119770295D01*
X158732142Y-119770295D02*
X158732142Y-119913152D01*
X158732142Y-119913152D02*
X158684523Y-120008390D01*
X158684523Y-120008390D02*
X158636904Y-120056009D01*
X158636904Y-120056009D02*
X158541666Y-120103628D01*
X158541666Y-120103628D02*
X158160714Y-120103628D01*
X159684523Y-120579819D02*
X159113095Y-120579819D01*
X159398809Y-120579819D02*
X159398809Y-119579819D01*
X159398809Y-119579819D02*
X159303571Y-119722676D01*
X159303571Y-119722676D02*
X159208333Y-119817914D01*
X159208333Y-119817914D02*
X159113095Y-119865533D01*
X160589285Y-119579819D02*
X160113095Y-119579819D01*
X160113095Y-119579819D02*
X160065476Y-120056009D01*
X160065476Y-120056009D02*
X160113095Y-120008390D01*
X160113095Y-120008390D02*
X160208333Y-119960771D01*
X160208333Y-119960771D02*
X160446428Y-119960771D01*
X160446428Y-119960771D02*
X160541666Y-120008390D01*
X160541666Y-120008390D02*
X160589285Y-120056009D01*
X160589285Y-120056009D02*
X160636904Y-120151247D01*
X160636904Y-120151247D02*
X160636904Y-120389342D01*
X160636904Y-120389342D02*
X160589285Y-120484580D01*
X160589285Y-120484580D02*
X160541666Y-120532200D01*
X160541666Y-120532200D02*
X160446428Y-120579819D01*
X160446428Y-120579819D02*
X160208333Y-120579819D01*
X160208333Y-120579819D02*
X160113095Y-120532200D01*
X160113095Y-120532200D02*
X160065476Y-120484580D01*
X145904819Y-127341666D02*
X145428628Y-127674999D01*
X145904819Y-127913094D02*
X144904819Y-127913094D01*
X144904819Y-127913094D02*
X144904819Y-127532142D01*
X144904819Y-127532142D02*
X144952438Y-127436904D01*
X144952438Y-127436904D02*
X145000057Y-127389285D01*
X145000057Y-127389285D02*
X145095295Y-127341666D01*
X145095295Y-127341666D02*
X145238152Y-127341666D01*
X145238152Y-127341666D02*
X145333390Y-127389285D01*
X145333390Y-127389285D02*
X145381009Y-127436904D01*
X145381009Y-127436904D02*
X145428628Y-127532142D01*
X145428628Y-127532142D02*
X145428628Y-127913094D01*
X145904819Y-126865475D02*
X145904819Y-126674999D01*
X145904819Y-126674999D02*
X145857200Y-126579761D01*
X145857200Y-126579761D02*
X145809580Y-126532142D01*
X145809580Y-126532142D02*
X145666723Y-126436904D01*
X145666723Y-126436904D02*
X145476247Y-126389285D01*
X145476247Y-126389285D02*
X145095295Y-126389285D01*
X145095295Y-126389285D02*
X145000057Y-126436904D01*
X145000057Y-126436904D02*
X144952438Y-126484523D01*
X144952438Y-126484523D02*
X144904819Y-126579761D01*
X144904819Y-126579761D02*
X144904819Y-126770237D01*
X144904819Y-126770237D02*
X144952438Y-126865475D01*
X144952438Y-126865475D02*
X145000057Y-126913094D01*
X145000057Y-126913094D02*
X145095295Y-126960713D01*
X145095295Y-126960713D02*
X145333390Y-126960713D01*
X145333390Y-126960713D02*
X145428628Y-126913094D01*
X145428628Y-126913094D02*
X145476247Y-126865475D01*
X145476247Y-126865475D02*
X145523866Y-126770237D01*
X145523866Y-126770237D02*
X145523866Y-126579761D01*
X145523866Y-126579761D02*
X145476247Y-126484523D01*
X145476247Y-126484523D02*
X145428628Y-126436904D01*
X145428628Y-126436904D02*
X145333390Y-126389285D01*
X172733333Y-123434580D02*
X172685714Y-123482200D01*
X172685714Y-123482200D02*
X172542857Y-123529819D01*
X172542857Y-123529819D02*
X172447619Y-123529819D01*
X172447619Y-123529819D02*
X172304762Y-123482200D01*
X172304762Y-123482200D02*
X172209524Y-123386961D01*
X172209524Y-123386961D02*
X172161905Y-123291723D01*
X172161905Y-123291723D02*
X172114286Y-123101247D01*
X172114286Y-123101247D02*
X172114286Y-122958390D01*
X172114286Y-122958390D02*
X172161905Y-122767914D01*
X172161905Y-122767914D02*
X172209524Y-122672676D01*
X172209524Y-122672676D02*
X172304762Y-122577438D01*
X172304762Y-122577438D02*
X172447619Y-122529819D01*
X172447619Y-122529819D02*
X172542857Y-122529819D01*
X172542857Y-122529819D02*
X172685714Y-122577438D01*
X172685714Y-122577438D02*
X172733333Y-122625057D01*
X173114286Y-122625057D02*
X173161905Y-122577438D01*
X173161905Y-122577438D02*
X173257143Y-122529819D01*
X173257143Y-122529819D02*
X173495238Y-122529819D01*
X173495238Y-122529819D02*
X173590476Y-122577438D01*
X173590476Y-122577438D02*
X173638095Y-122625057D01*
X173638095Y-122625057D02*
X173685714Y-122720295D01*
X173685714Y-122720295D02*
X173685714Y-122815533D01*
X173685714Y-122815533D02*
X173638095Y-122958390D01*
X173638095Y-122958390D02*
X173066667Y-123529819D01*
X173066667Y-123529819D02*
X173685714Y-123529819D01*
X151604761Y-140900057D02*
X151509523Y-140852438D01*
X151509523Y-140852438D02*
X151414285Y-140757200D01*
X151414285Y-140757200D02*
X151271428Y-140614342D01*
X151271428Y-140614342D02*
X151176190Y-140566723D01*
X151176190Y-140566723D02*
X151080952Y-140566723D01*
X151128571Y-140804819D02*
X151033333Y-140757200D01*
X151033333Y-140757200D02*
X150938095Y-140661961D01*
X150938095Y-140661961D02*
X150890476Y-140471485D01*
X150890476Y-140471485D02*
X150890476Y-140138152D01*
X150890476Y-140138152D02*
X150938095Y-139947676D01*
X150938095Y-139947676D02*
X151033333Y-139852438D01*
X151033333Y-139852438D02*
X151128571Y-139804819D01*
X151128571Y-139804819D02*
X151319047Y-139804819D01*
X151319047Y-139804819D02*
X151414285Y-139852438D01*
X151414285Y-139852438D02*
X151509523Y-139947676D01*
X151509523Y-139947676D02*
X151557142Y-140138152D01*
X151557142Y-140138152D02*
X151557142Y-140471485D01*
X151557142Y-140471485D02*
X151509523Y-140661961D01*
X151509523Y-140661961D02*
X151414285Y-140757200D01*
X151414285Y-140757200D02*
X151319047Y-140804819D01*
X151319047Y-140804819D02*
X151128571Y-140804819D01*
X151938095Y-139900057D02*
X151985714Y-139852438D01*
X151985714Y-139852438D02*
X152080952Y-139804819D01*
X152080952Y-139804819D02*
X152319047Y-139804819D01*
X152319047Y-139804819D02*
X152414285Y-139852438D01*
X152414285Y-139852438D02*
X152461904Y-139900057D01*
X152461904Y-139900057D02*
X152509523Y-139995295D01*
X152509523Y-139995295D02*
X152509523Y-140090533D01*
X152509523Y-140090533D02*
X152461904Y-140233390D01*
X152461904Y-140233390D02*
X151890476Y-140804819D01*
X151890476Y-140804819D02*
X152509523Y-140804819D01*
X141466666Y-115504819D02*
X141466666Y-116219104D01*
X141466666Y-116219104D02*
X141419047Y-116361961D01*
X141419047Y-116361961D02*
X141323809Y-116457200D01*
X141323809Y-116457200D02*
X141180952Y-116504819D01*
X141180952Y-116504819D02*
X141085714Y-116504819D01*
X141942857Y-116504819D02*
X141942857Y-115504819D01*
X141942857Y-115504819D02*
X142323809Y-115504819D01*
X142323809Y-115504819D02*
X142419047Y-115552438D01*
X142419047Y-115552438D02*
X142466666Y-115600057D01*
X142466666Y-115600057D02*
X142514285Y-115695295D01*
X142514285Y-115695295D02*
X142514285Y-115838152D01*
X142514285Y-115838152D02*
X142466666Y-115933390D01*
X142466666Y-115933390D02*
X142419047Y-115981009D01*
X142419047Y-115981009D02*
X142323809Y-116028628D01*
X142323809Y-116028628D02*
X141942857Y-116028628D01*
X143371428Y-115838152D02*
X143371428Y-116504819D01*
X143133333Y-115457200D02*
X142895238Y-116171485D01*
X142895238Y-116171485D02*
X143514285Y-116171485D01*
X176688095Y-117517319D02*
X176688095Y-118326842D01*
X176688095Y-118326842D02*
X176735714Y-118422080D01*
X176735714Y-118422080D02*
X176783333Y-118469700D01*
X176783333Y-118469700D02*
X176878571Y-118517319D01*
X176878571Y-118517319D02*
X177069047Y-118517319D01*
X177069047Y-118517319D02*
X177164285Y-118469700D01*
X177164285Y-118469700D02*
X177211904Y-118422080D01*
X177211904Y-118422080D02*
X177259523Y-118326842D01*
X177259523Y-118326842D02*
X177259523Y-117517319D01*
X177878571Y-117945890D02*
X177783333Y-117898271D01*
X177783333Y-117898271D02*
X177735714Y-117850652D01*
X177735714Y-117850652D02*
X177688095Y-117755414D01*
X177688095Y-117755414D02*
X177688095Y-117707795D01*
X177688095Y-117707795D02*
X177735714Y-117612557D01*
X177735714Y-117612557D02*
X177783333Y-117564938D01*
X177783333Y-117564938D02*
X177878571Y-117517319D01*
X177878571Y-117517319D02*
X178069047Y-117517319D01*
X178069047Y-117517319D02*
X178164285Y-117564938D01*
X178164285Y-117564938D02*
X178211904Y-117612557D01*
X178211904Y-117612557D02*
X178259523Y-117707795D01*
X178259523Y-117707795D02*
X178259523Y-117755414D01*
X178259523Y-117755414D02*
X178211904Y-117850652D01*
X178211904Y-117850652D02*
X178164285Y-117898271D01*
X178164285Y-117898271D02*
X178069047Y-117945890D01*
X178069047Y-117945890D02*
X177878571Y-117945890D01*
X177878571Y-117945890D02*
X177783333Y-117993509D01*
X177783333Y-117993509D02*
X177735714Y-118041128D01*
X177735714Y-118041128D02*
X177688095Y-118136366D01*
X177688095Y-118136366D02*
X177688095Y-118326842D01*
X177688095Y-118326842D02*
X177735714Y-118422080D01*
X177735714Y-118422080D02*
X177783333Y-118469700D01*
X177783333Y-118469700D02*
X177878571Y-118517319D01*
X177878571Y-118517319D02*
X178069047Y-118517319D01*
X178069047Y-118517319D02*
X178164285Y-118469700D01*
X178164285Y-118469700D02*
X178211904Y-118422080D01*
X178211904Y-118422080D02*
X178259523Y-118326842D01*
X178259523Y-118326842D02*
X178259523Y-118136366D01*
X178259523Y-118136366D02*
X178211904Y-118041128D01*
X178211904Y-118041128D02*
X178164285Y-117993509D01*
X178164285Y-117993509D02*
X178069047Y-117945890D01*
X151604761Y-136900057D02*
X151509523Y-136852438D01*
X151509523Y-136852438D02*
X151414285Y-136757200D01*
X151414285Y-136757200D02*
X151271428Y-136614342D01*
X151271428Y-136614342D02*
X151176190Y-136566723D01*
X151176190Y-136566723D02*
X151080952Y-136566723D01*
X151128571Y-136804819D02*
X151033333Y-136757200D01*
X151033333Y-136757200D02*
X150938095Y-136661961D01*
X150938095Y-136661961D02*
X150890476Y-136471485D01*
X150890476Y-136471485D02*
X150890476Y-136138152D01*
X150890476Y-136138152D02*
X150938095Y-135947676D01*
X150938095Y-135947676D02*
X151033333Y-135852438D01*
X151033333Y-135852438D02*
X151128571Y-135804819D01*
X151128571Y-135804819D02*
X151319047Y-135804819D01*
X151319047Y-135804819D02*
X151414285Y-135852438D01*
X151414285Y-135852438D02*
X151509523Y-135947676D01*
X151509523Y-135947676D02*
X151557142Y-136138152D01*
X151557142Y-136138152D02*
X151557142Y-136471485D01*
X151557142Y-136471485D02*
X151509523Y-136661961D01*
X151509523Y-136661961D02*
X151414285Y-136757200D01*
X151414285Y-136757200D02*
X151319047Y-136804819D01*
X151319047Y-136804819D02*
X151128571Y-136804819D01*
X151890476Y-135804819D02*
X152509523Y-135804819D01*
X152509523Y-135804819D02*
X152176190Y-136185771D01*
X152176190Y-136185771D02*
X152319047Y-136185771D01*
X152319047Y-136185771D02*
X152414285Y-136233390D01*
X152414285Y-136233390D02*
X152461904Y-136281009D01*
X152461904Y-136281009D02*
X152509523Y-136376247D01*
X152509523Y-136376247D02*
X152509523Y-136614342D01*
X152509523Y-136614342D02*
X152461904Y-136709580D01*
X152461904Y-136709580D02*
X152414285Y-136757200D01*
X152414285Y-136757200D02*
X152319047Y-136804819D01*
X152319047Y-136804819D02*
X152033333Y-136804819D01*
X152033333Y-136804819D02*
X151938095Y-136757200D01*
X151938095Y-136757200D02*
X151890476Y-136709580D01*
X145904819Y-139341666D02*
X145428628Y-139674999D01*
X145904819Y-139913094D02*
X144904819Y-139913094D01*
X144904819Y-139913094D02*
X144904819Y-139532142D01*
X144904819Y-139532142D02*
X144952438Y-139436904D01*
X144952438Y-139436904D02*
X145000057Y-139389285D01*
X145000057Y-139389285D02*
X145095295Y-139341666D01*
X145095295Y-139341666D02*
X145238152Y-139341666D01*
X145238152Y-139341666D02*
X145333390Y-139389285D01*
X145333390Y-139389285D02*
X145381009Y-139436904D01*
X145381009Y-139436904D02*
X145428628Y-139532142D01*
X145428628Y-139532142D02*
X145428628Y-139913094D01*
X144904819Y-139008332D02*
X144904819Y-138389285D01*
X144904819Y-138389285D02*
X145285771Y-138722618D01*
X145285771Y-138722618D02*
X145285771Y-138579761D01*
X145285771Y-138579761D02*
X145333390Y-138484523D01*
X145333390Y-138484523D02*
X145381009Y-138436904D01*
X145381009Y-138436904D02*
X145476247Y-138389285D01*
X145476247Y-138389285D02*
X145714342Y-138389285D01*
X145714342Y-138389285D02*
X145809580Y-138436904D01*
X145809580Y-138436904D02*
X145857200Y-138484523D01*
X145857200Y-138484523D02*
X145904819Y-138579761D01*
X145904819Y-138579761D02*
X145904819Y-138865475D01*
X145904819Y-138865475D02*
X145857200Y-138960713D01*
X145857200Y-138960713D02*
X145809580Y-139008332D01*
X162988095Y-126504819D02*
X162988095Y-127314342D01*
X162988095Y-127314342D02*
X163035714Y-127409580D01*
X163035714Y-127409580D02*
X163083333Y-127457200D01*
X163083333Y-127457200D02*
X163178571Y-127504819D01*
X163178571Y-127504819D02*
X163369047Y-127504819D01*
X163369047Y-127504819D02*
X163464285Y-127457200D01*
X163464285Y-127457200D02*
X163511904Y-127409580D01*
X163511904Y-127409580D02*
X163559523Y-127314342D01*
X163559523Y-127314342D02*
X163559523Y-126504819D01*
X164511904Y-126504819D02*
X164035714Y-126504819D01*
X164035714Y-126504819D02*
X163988095Y-126981009D01*
X163988095Y-126981009D02*
X164035714Y-126933390D01*
X164035714Y-126933390D02*
X164130952Y-126885771D01*
X164130952Y-126885771D02*
X164369047Y-126885771D01*
X164369047Y-126885771D02*
X164464285Y-126933390D01*
X164464285Y-126933390D02*
X164511904Y-126981009D01*
X164511904Y-126981009D02*
X164559523Y-127076247D01*
X164559523Y-127076247D02*
X164559523Y-127314342D01*
X164559523Y-127314342D02*
X164511904Y-127409580D01*
X164511904Y-127409580D02*
X164464285Y-127457200D01*
X164464285Y-127457200D02*
X164369047Y-127504819D01*
X164369047Y-127504819D02*
X164130952Y-127504819D01*
X164130952Y-127504819D02*
X164035714Y-127457200D01*
X164035714Y-127457200D02*
X163988095Y-127409580D01*
X151604761Y-144900057D02*
X151509523Y-144852438D01*
X151509523Y-144852438D02*
X151414285Y-144757200D01*
X151414285Y-144757200D02*
X151271428Y-144614342D01*
X151271428Y-144614342D02*
X151176190Y-144566723D01*
X151176190Y-144566723D02*
X151080952Y-144566723D01*
X151128571Y-144804819D02*
X151033333Y-144757200D01*
X151033333Y-144757200D02*
X150938095Y-144661961D01*
X150938095Y-144661961D02*
X150890476Y-144471485D01*
X150890476Y-144471485D02*
X150890476Y-144138152D01*
X150890476Y-144138152D02*
X150938095Y-143947676D01*
X150938095Y-143947676D02*
X151033333Y-143852438D01*
X151033333Y-143852438D02*
X151128571Y-143804819D01*
X151128571Y-143804819D02*
X151319047Y-143804819D01*
X151319047Y-143804819D02*
X151414285Y-143852438D01*
X151414285Y-143852438D02*
X151509523Y-143947676D01*
X151509523Y-143947676D02*
X151557142Y-144138152D01*
X151557142Y-144138152D02*
X151557142Y-144471485D01*
X151557142Y-144471485D02*
X151509523Y-144661961D01*
X151509523Y-144661961D02*
X151414285Y-144757200D01*
X151414285Y-144757200D02*
X151319047Y-144804819D01*
X151319047Y-144804819D02*
X151128571Y-144804819D01*
X152509523Y-144804819D02*
X151938095Y-144804819D01*
X152223809Y-144804819D02*
X152223809Y-143804819D01*
X152223809Y-143804819D02*
X152128571Y-143947676D01*
X152128571Y-143947676D02*
X152033333Y-144042914D01*
X152033333Y-144042914D02*
X151938095Y-144090533D01*
X148674819Y-111333333D02*
X149389104Y-111333333D01*
X149389104Y-111333333D02*
X149531961Y-111380952D01*
X149531961Y-111380952D02*
X149627200Y-111476190D01*
X149627200Y-111476190D02*
X149674819Y-111619047D01*
X149674819Y-111619047D02*
X149674819Y-111714285D01*
X148674819Y-110380952D02*
X148674819Y-110857142D01*
X148674819Y-110857142D02*
X149151009Y-110904761D01*
X149151009Y-110904761D02*
X149103390Y-110857142D01*
X149103390Y-110857142D02*
X149055771Y-110761904D01*
X149055771Y-110761904D02*
X149055771Y-110523809D01*
X149055771Y-110523809D02*
X149103390Y-110428571D01*
X149103390Y-110428571D02*
X149151009Y-110380952D01*
X149151009Y-110380952D02*
X149246247Y-110333333D01*
X149246247Y-110333333D02*
X149484342Y-110333333D01*
X149484342Y-110333333D02*
X149579580Y-110380952D01*
X149579580Y-110380952D02*
X149627200Y-110428571D01*
X149627200Y-110428571D02*
X149674819Y-110523809D01*
X149674819Y-110523809D02*
X149674819Y-110761904D01*
X149674819Y-110761904D02*
X149627200Y-110857142D01*
X149627200Y-110857142D02*
X149579580Y-110904761D01*
X141441666Y-106504819D02*
X141441666Y-107219104D01*
X141441666Y-107219104D02*
X141394047Y-107361961D01*
X141394047Y-107361961D02*
X141298809Y-107457200D01*
X141298809Y-107457200D02*
X141155952Y-107504819D01*
X141155952Y-107504819D02*
X141060714Y-107504819D01*
X141917857Y-107504819D02*
X141917857Y-106504819D01*
X141917857Y-106504819D02*
X142298809Y-106504819D01*
X142298809Y-106504819D02*
X142394047Y-106552438D01*
X142394047Y-106552438D02*
X142441666Y-106600057D01*
X142441666Y-106600057D02*
X142489285Y-106695295D01*
X142489285Y-106695295D02*
X142489285Y-106838152D01*
X142489285Y-106838152D02*
X142441666Y-106933390D01*
X142441666Y-106933390D02*
X142394047Y-106981009D01*
X142394047Y-106981009D02*
X142298809Y-107028628D01*
X142298809Y-107028628D02*
X141917857Y-107028628D01*
X142822619Y-106504819D02*
X143489285Y-106504819D01*
X143489285Y-106504819D02*
X143060714Y-107504819D01*
X141441666Y-109504819D02*
X141441666Y-110219104D01*
X141441666Y-110219104D02*
X141394047Y-110361961D01*
X141394047Y-110361961D02*
X141298809Y-110457200D01*
X141298809Y-110457200D02*
X141155952Y-110504819D01*
X141155952Y-110504819D02*
X141060714Y-110504819D01*
X141917857Y-110504819D02*
X141917857Y-109504819D01*
X141917857Y-109504819D02*
X142298809Y-109504819D01*
X142298809Y-109504819D02*
X142394047Y-109552438D01*
X142394047Y-109552438D02*
X142441666Y-109600057D01*
X142441666Y-109600057D02*
X142489285Y-109695295D01*
X142489285Y-109695295D02*
X142489285Y-109838152D01*
X142489285Y-109838152D02*
X142441666Y-109933390D01*
X142441666Y-109933390D02*
X142394047Y-109981009D01*
X142394047Y-109981009D02*
X142298809Y-110028628D01*
X142298809Y-110028628D02*
X141917857Y-110028628D01*
X143346428Y-109504819D02*
X143155952Y-109504819D01*
X143155952Y-109504819D02*
X143060714Y-109552438D01*
X143060714Y-109552438D02*
X143013095Y-109600057D01*
X143013095Y-109600057D02*
X142917857Y-109742914D01*
X142917857Y-109742914D02*
X142870238Y-109933390D01*
X142870238Y-109933390D02*
X142870238Y-110314342D01*
X142870238Y-110314342D02*
X142917857Y-110409580D01*
X142917857Y-110409580D02*
X142965476Y-110457200D01*
X142965476Y-110457200D02*
X143060714Y-110504819D01*
X143060714Y-110504819D02*
X143251190Y-110504819D01*
X143251190Y-110504819D02*
X143346428Y-110457200D01*
X143346428Y-110457200D02*
X143394047Y-110409580D01*
X143394047Y-110409580D02*
X143441666Y-110314342D01*
X143441666Y-110314342D02*
X143441666Y-110076247D01*
X143441666Y-110076247D02*
X143394047Y-109981009D01*
X143394047Y-109981009D02*
X143346428Y-109933390D01*
X143346428Y-109933390D02*
X143251190Y-109885771D01*
X143251190Y-109885771D02*
X143060714Y-109885771D01*
X143060714Y-109885771D02*
X142965476Y-109933390D01*
X142965476Y-109933390D02*
X142917857Y-109981009D01*
X142917857Y-109981009D02*
X142870238Y-110076247D01*
X141441666Y-112504819D02*
X141441666Y-113219104D01*
X141441666Y-113219104D02*
X141394047Y-113361961D01*
X141394047Y-113361961D02*
X141298809Y-113457200D01*
X141298809Y-113457200D02*
X141155952Y-113504819D01*
X141155952Y-113504819D02*
X141060714Y-113504819D01*
X141917857Y-113504819D02*
X141917857Y-112504819D01*
X141917857Y-112504819D02*
X142298809Y-112504819D01*
X142298809Y-112504819D02*
X142394047Y-112552438D01*
X142394047Y-112552438D02*
X142441666Y-112600057D01*
X142441666Y-112600057D02*
X142489285Y-112695295D01*
X142489285Y-112695295D02*
X142489285Y-112838152D01*
X142489285Y-112838152D02*
X142441666Y-112933390D01*
X142441666Y-112933390D02*
X142394047Y-112981009D01*
X142394047Y-112981009D02*
X142298809Y-113028628D01*
X142298809Y-113028628D02*
X141917857Y-113028628D01*
X142870238Y-112600057D02*
X142917857Y-112552438D01*
X142917857Y-112552438D02*
X143013095Y-112504819D01*
X143013095Y-112504819D02*
X143251190Y-112504819D01*
X143251190Y-112504819D02*
X143346428Y-112552438D01*
X143346428Y-112552438D02*
X143394047Y-112600057D01*
X143394047Y-112600057D02*
X143441666Y-112695295D01*
X143441666Y-112695295D02*
X143441666Y-112790533D01*
X143441666Y-112790533D02*
X143394047Y-112933390D01*
X143394047Y-112933390D02*
X142822619Y-113504819D01*
X142822619Y-113504819D02*
X143441666Y-113504819D01*
X155279819Y-138391666D02*
X154803628Y-138724999D01*
X155279819Y-138963094D02*
X154279819Y-138963094D01*
X154279819Y-138963094D02*
X154279819Y-138582142D01*
X154279819Y-138582142D02*
X154327438Y-138486904D01*
X154327438Y-138486904D02*
X154375057Y-138439285D01*
X154375057Y-138439285D02*
X154470295Y-138391666D01*
X154470295Y-138391666D02*
X154613152Y-138391666D01*
X154613152Y-138391666D02*
X154708390Y-138439285D01*
X154708390Y-138439285D02*
X154756009Y-138486904D01*
X154756009Y-138486904D02*
X154803628Y-138582142D01*
X154803628Y-138582142D02*
X154803628Y-138963094D01*
X154613152Y-137534523D02*
X155279819Y-137534523D01*
X154232200Y-137772618D02*
X154946485Y-138010713D01*
X154946485Y-138010713D02*
X154946485Y-137391666D01*
X141441666Y-118504819D02*
X141441666Y-119219104D01*
X141441666Y-119219104D02*
X141394047Y-119361961D01*
X141394047Y-119361961D02*
X141298809Y-119457200D01*
X141298809Y-119457200D02*
X141155952Y-119504819D01*
X141155952Y-119504819D02*
X141060714Y-119504819D01*
X141917857Y-119504819D02*
X141917857Y-118504819D01*
X141917857Y-118504819D02*
X142298809Y-118504819D01*
X142298809Y-118504819D02*
X142394047Y-118552438D01*
X142394047Y-118552438D02*
X142441666Y-118600057D01*
X142441666Y-118600057D02*
X142489285Y-118695295D01*
X142489285Y-118695295D02*
X142489285Y-118838152D01*
X142489285Y-118838152D02*
X142441666Y-118933390D01*
X142441666Y-118933390D02*
X142394047Y-118981009D01*
X142394047Y-118981009D02*
X142298809Y-119028628D01*
X142298809Y-119028628D02*
X141917857Y-119028628D01*
X143441666Y-119504819D02*
X142870238Y-119504819D01*
X143155952Y-119504819D02*
X143155952Y-118504819D01*
X143155952Y-118504819D02*
X143060714Y-118647676D01*
X143060714Y-118647676D02*
X142965476Y-118742914D01*
X142965476Y-118742914D02*
X142870238Y-118790533D01*
X162988095Y-146504819D02*
X162988095Y-147314342D01*
X162988095Y-147314342D02*
X163035714Y-147409580D01*
X163035714Y-147409580D02*
X163083333Y-147457200D01*
X163083333Y-147457200D02*
X163178571Y-147504819D01*
X163178571Y-147504819D02*
X163369047Y-147504819D01*
X163369047Y-147504819D02*
X163464285Y-147457200D01*
X163464285Y-147457200D02*
X163511904Y-147409580D01*
X163511904Y-147409580D02*
X163559523Y-147314342D01*
X163559523Y-147314342D02*
X163559523Y-146504819D01*
X163940476Y-146504819D02*
X164607142Y-146504819D01*
X164607142Y-146504819D02*
X164178571Y-147504819D01*
X158929819Y-117808333D02*
X159644104Y-117808333D01*
X159644104Y-117808333D02*
X159786961Y-117855952D01*
X159786961Y-117855952D02*
X159882200Y-117951190D01*
X159882200Y-117951190D02*
X159929819Y-118094047D01*
X159929819Y-118094047D02*
X159929819Y-118189285D01*
X158929819Y-116903571D02*
X158929819Y-117094047D01*
X158929819Y-117094047D02*
X158977438Y-117189285D01*
X158977438Y-117189285D02*
X159025057Y-117236904D01*
X159025057Y-117236904D02*
X159167914Y-117332142D01*
X159167914Y-117332142D02*
X159358390Y-117379761D01*
X159358390Y-117379761D02*
X159739342Y-117379761D01*
X159739342Y-117379761D02*
X159834580Y-117332142D01*
X159834580Y-117332142D02*
X159882200Y-117284523D01*
X159882200Y-117284523D02*
X159929819Y-117189285D01*
X159929819Y-117189285D02*
X159929819Y-116998809D01*
X159929819Y-116998809D02*
X159882200Y-116903571D01*
X159882200Y-116903571D02*
X159834580Y-116855952D01*
X159834580Y-116855952D02*
X159739342Y-116808333D01*
X159739342Y-116808333D02*
X159501247Y-116808333D01*
X159501247Y-116808333D02*
X159406009Y-116855952D01*
X159406009Y-116855952D02*
X159358390Y-116903571D01*
X159358390Y-116903571D02*
X159310771Y-116998809D01*
X159310771Y-116998809D02*
X159310771Y-117189285D01*
X159310771Y-117189285D02*
X159358390Y-117284523D01*
X159358390Y-117284523D02*
X159406009Y-117332142D01*
X159406009Y-117332142D02*
X159501247Y-117379761D01*
X151604761Y-148900057D02*
X151509523Y-148852438D01*
X151509523Y-148852438D02*
X151414285Y-148757200D01*
X151414285Y-148757200D02*
X151271428Y-148614342D01*
X151271428Y-148614342D02*
X151176190Y-148566723D01*
X151176190Y-148566723D02*
X151080952Y-148566723D01*
X151128571Y-148804819D02*
X151033333Y-148757200D01*
X151033333Y-148757200D02*
X150938095Y-148661961D01*
X150938095Y-148661961D02*
X150890476Y-148471485D01*
X150890476Y-148471485D02*
X150890476Y-148138152D01*
X150890476Y-148138152D02*
X150938095Y-147947676D01*
X150938095Y-147947676D02*
X151033333Y-147852438D01*
X151033333Y-147852438D02*
X151128571Y-147804819D01*
X151128571Y-147804819D02*
X151319047Y-147804819D01*
X151319047Y-147804819D02*
X151414285Y-147852438D01*
X151414285Y-147852438D02*
X151509523Y-147947676D01*
X151509523Y-147947676D02*
X151557142Y-148138152D01*
X151557142Y-148138152D02*
X151557142Y-148471485D01*
X151557142Y-148471485D02*
X151509523Y-148661961D01*
X151509523Y-148661961D02*
X151414285Y-148757200D01*
X151414285Y-148757200D02*
X151319047Y-148804819D01*
X151319047Y-148804819D02*
X151128571Y-148804819D01*
X151890476Y-147804819D02*
X152557142Y-147804819D01*
X152557142Y-147804819D02*
X152128571Y-148804819D01*
X145904819Y-123817857D02*
X145428628Y-124151190D01*
X145904819Y-124389285D02*
X144904819Y-124389285D01*
X144904819Y-124389285D02*
X144904819Y-124008333D01*
X144904819Y-124008333D02*
X144952438Y-123913095D01*
X144952438Y-123913095D02*
X145000057Y-123865476D01*
X145000057Y-123865476D02*
X145095295Y-123817857D01*
X145095295Y-123817857D02*
X145238152Y-123817857D01*
X145238152Y-123817857D02*
X145333390Y-123865476D01*
X145333390Y-123865476D02*
X145381009Y-123913095D01*
X145381009Y-123913095D02*
X145428628Y-124008333D01*
X145428628Y-124008333D02*
X145428628Y-124389285D01*
X145904819Y-122865476D02*
X145904819Y-123436904D01*
X145904819Y-123151190D02*
X144904819Y-123151190D01*
X144904819Y-123151190D02*
X145047676Y-123246428D01*
X145047676Y-123246428D02*
X145142914Y-123341666D01*
X145142914Y-123341666D02*
X145190533Y-123436904D01*
X145904819Y-121913095D02*
X145904819Y-122484523D01*
X145904819Y-122198809D02*
X144904819Y-122198809D01*
X144904819Y-122198809D02*
X145047676Y-122294047D01*
X145047676Y-122294047D02*
X145142914Y-122389285D01*
X145142914Y-122389285D02*
X145190533Y-122484523D01*
X145904819Y-131341666D02*
X145428628Y-131674999D01*
X145904819Y-131913094D02*
X144904819Y-131913094D01*
X144904819Y-131913094D02*
X144904819Y-131532142D01*
X144904819Y-131532142D02*
X144952438Y-131436904D01*
X144952438Y-131436904D02*
X145000057Y-131389285D01*
X145000057Y-131389285D02*
X145095295Y-131341666D01*
X145095295Y-131341666D02*
X145238152Y-131341666D01*
X145238152Y-131341666D02*
X145333390Y-131389285D01*
X145333390Y-131389285D02*
X145381009Y-131436904D01*
X145381009Y-131436904D02*
X145428628Y-131532142D01*
X145428628Y-131532142D02*
X145428628Y-131913094D01*
X144904819Y-131008332D02*
X144904819Y-130341666D01*
X144904819Y-130341666D02*
X145904819Y-130770237D01*
X145854819Y-135341666D02*
X145378628Y-135674999D01*
X145854819Y-135913094D02*
X144854819Y-135913094D01*
X144854819Y-135913094D02*
X144854819Y-135532142D01*
X144854819Y-135532142D02*
X144902438Y-135436904D01*
X144902438Y-135436904D02*
X144950057Y-135389285D01*
X144950057Y-135389285D02*
X145045295Y-135341666D01*
X145045295Y-135341666D02*
X145188152Y-135341666D01*
X145188152Y-135341666D02*
X145283390Y-135389285D01*
X145283390Y-135389285D02*
X145331009Y-135436904D01*
X145331009Y-135436904D02*
X145378628Y-135532142D01*
X145378628Y-135532142D02*
X145378628Y-135913094D01*
X144854819Y-134436904D02*
X144854819Y-134913094D01*
X144854819Y-134913094D02*
X145331009Y-134960713D01*
X145331009Y-134960713D02*
X145283390Y-134913094D01*
X145283390Y-134913094D02*
X145235771Y-134817856D01*
X145235771Y-134817856D02*
X145235771Y-134579761D01*
X145235771Y-134579761D02*
X145283390Y-134484523D01*
X145283390Y-134484523D02*
X145331009Y-134436904D01*
X145331009Y-134436904D02*
X145426247Y-134389285D01*
X145426247Y-134389285D02*
X145664342Y-134389285D01*
X145664342Y-134389285D02*
X145759580Y-134436904D01*
X145759580Y-134436904D02*
X145807200Y-134484523D01*
X145807200Y-134484523D02*
X145854819Y-134579761D01*
X145854819Y-134579761D02*
X145854819Y-134817856D01*
X145854819Y-134817856D02*
X145807200Y-134913094D01*
X145807200Y-134913094D02*
X145759580Y-134960713D01*
X151604761Y-132900057D02*
X151509523Y-132852438D01*
X151509523Y-132852438D02*
X151414285Y-132757200D01*
X151414285Y-132757200D02*
X151271428Y-132614342D01*
X151271428Y-132614342D02*
X151176190Y-132566723D01*
X151176190Y-132566723D02*
X151080952Y-132566723D01*
X151128571Y-132804819D02*
X151033333Y-132757200D01*
X151033333Y-132757200D02*
X150938095Y-132661961D01*
X150938095Y-132661961D02*
X150890476Y-132471485D01*
X150890476Y-132471485D02*
X150890476Y-132138152D01*
X150890476Y-132138152D02*
X150938095Y-131947676D01*
X150938095Y-131947676D02*
X151033333Y-131852438D01*
X151033333Y-131852438D02*
X151128571Y-131804819D01*
X151128571Y-131804819D02*
X151319047Y-131804819D01*
X151319047Y-131804819D02*
X151414285Y-131852438D01*
X151414285Y-131852438D02*
X151509523Y-131947676D01*
X151509523Y-131947676D02*
X151557142Y-132138152D01*
X151557142Y-132138152D02*
X151557142Y-132471485D01*
X151557142Y-132471485D02*
X151509523Y-132661961D01*
X151509523Y-132661961D02*
X151414285Y-132757200D01*
X151414285Y-132757200D02*
X151319047Y-132804819D01*
X151319047Y-132804819D02*
X151128571Y-132804819D01*
X152414285Y-132138152D02*
X152414285Y-132804819D01*
X152176190Y-131757200D02*
X151938095Y-132471485D01*
X151938095Y-132471485D02*
X152557142Y-132471485D01*
X151604761Y-124900057D02*
X151509523Y-124852438D01*
X151509523Y-124852438D02*
X151414285Y-124757200D01*
X151414285Y-124757200D02*
X151271428Y-124614342D01*
X151271428Y-124614342D02*
X151176190Y-124566723D01*
X151176190Y-124566723D02*
X151080952Y-124566723D01*
X151128571Y-124804819D02*
X151033333Y-124757200D01*
X151033333Y-124757200D02*
X150938095Y-124661961D01*
X150938095Y-124661961D02*
X150890476Y-124471485D01*
X150890476Y-124471485D02*
X150890476Y-124138152D01*
X150890476Y-124138152D02*
X150938095Y-123947676D01*
X150938095Y-123947676D02*
X151033333Y-123852438D01*
X151033333Y-123852438D02*
X151128571Y-123804819D01*
X151128571Y-123804819D02*
X151319047Y-123804819D01*
X151319047Y-123804819D02*
X151414285Y-123852438D01*
X151414285Y-123852438D02*
X151509523Y-123947676D01*
X151509523Y-123947676D02*
X151557142Y-124138152D01*
X151557142Y-124138152D02*
X151557142Y-124471485D01*
X151557142Y-124471485D02*
X151509523Y-124661961D01*
X151509523Y-124661961D02*
X151414285Y-124757200D01*
X151414285Y-124757200D02*
X151319047Y-124804819D01*
X151319047Y-124804819D02*
X151128571Y-124804819D01*
X152414285Y-123804819D02*
X152223809Y-123804819D01*
X152223809Y-123804819D02*
X152128571Y-123852438D01*
X152128571Y-123852438D02*
X152080952Y-123900057D01*
X152080952Y-123900057D02*
X151985714Y-124042914D01*
X151985714Y-124042914D02*
X151938095Y-124233390D01*
X151938095Y-124233390D02*
X151938095Y-124614342D01*
X151938095Y-124614342D02*
X151985714Y-124709580D01*
X151985714Y-124709580D02*
X152033333Y-124757200D01*
X152033333Y-124757200D02*
X152128571Y-124804819D01*
X152128571Y-124804819D02*
X152319047Y-124804819D01*
X152319047Y-124804819D02*
X152414285Y-124757200D01*
X152414285Y-124757200D02*
X152461904Y-124709580D01*
X152461904Y-124709580D02*
X152509523Y-124614342D01*
X152509523Y-124614342D02*
X152509523Y-124376247D01*
X152509523Y-124376247D02*
X152461904Y-124281009D01*
X152461904Y-124281009D02*
X152414285Y-124233390D01*
X152414285Y-124233390D02*
X152319047Y-124185771D01*
X152319047Y-124185771D02*
X152128571Y-124185771D01*
X152128571Y-124185771D02*
X152033333Y-124233390D01*
X152033333Y-124233390D02*
X151985714Y-124281009D01*
X151985714Y-124281009D02*
X151938095Y-124376247D01*
X151604761Y-128900057D02*
X151509523Y-128852438D01*
X151509523Y-128852438D02*
X151414285Y-128757200D01*
X151414285Y-128757200D02*
X151271428Y-128614342D01*
X151271428Y-128614342D02*
X151176190Y-128566723D01*
X151176190Y-128566723D02*
X151080952Y-128566723D01*
X151128571Y-128804819D02*
X151033333Y-128757200D01*
X151033333Y-128757200D02*
X150938095Y-128661961D01*
X150938095Y-128661961D02*
X150890476Y-128471485D01*
X150890476Y-128471485D02*
X150890476Y-128138152D01*
X150890476Y-128138152D02*
X150938095Y-127947676D01*
X150938095Y-127947676D02*
X151033333Y-127852438D01*
X151033333Y-127852438D02*
X151128571Y-127804819D01*
X151128571Y-127804819D02*
X151319047Y-127804819D01*
X151319047Y-127804819D02*
X151414285Y-127852438D01*
X151414285Y-127852438D02*
X151509523Y-127947676D01*
X151509523Y-127947676D02*
X151557142Y-128138152D01*
X151557142Y-128138152D02*
X151557142Y-128471485D01*
X151557142Y-128471485D02*
X151509523Y-128661961D01*
X151509523Y-128661961D02*
X151414285Y-128757200D01*
X151414285Y-128757200D02*
X151319047Y-128804819D01*
X151319047Y-128804819D02*
X151128571Y-128804819D01*
X152461904Y-127804819D02*
X151985714Y-127804819D01*
X151985714Y-127804819D02*
X151938095Y-128281009D01*
X151938095Y-128281009D02*
X151985714Y-128233390D01*
X151985714Y-128233390D02*
X152080952Y-128185771D01*
X152080952Y-128185771D02*
X152319047Y-128185771D01*
X152319047Y-128185771D02*
X152414285Y-128233390D01*
X152414285Y-128233390D02*
X152461904Y-128281009D01*
X152461904Y-128281009D02*
X152509523Y-128376247D01*
X152509523Y-128376247D02*
X152509523Y-128614342D01*
X152509523Y-128614342D02*
X152461904Y-128709580D01*
X152461904Y-128709580D02*
X152414285Y-128757200D01*
X152414285Y-128757200D02*
X152319047Y-128804819D01*
X152319047Y-128804819D02*
X152080952Y-128804819D01*
X152080952Y-128804819D02*
X151985714Y-128757200D01*
X151985714Y-128757200D02*
X151938095Y-128709580D01*
X155279819Y-146892857D02*
X154803628Y-147226190D01*
X155279819Y-147464285D02*
X154279819Y-147464285D01*
X154279819Y-147464285D02*
X154279819Y-147083333D01*
X154279819Y-147083333D02*
X154327438Y-146988095D01*
X154327438Y-146988095D02*
X154375057Y-146940476D01*
X154375057Y-146940476D02*
X154470295Y-146892857D01*
X154470295Y-146892857D02*
X154613152Y-146892857D01*
X154613152Y-146892857D02*
X154708390Y-146940476D01*
X154708390Y-146940476D02*
X154756009Y-146988095D01*
X154756009Y-146988095D02*
X154803628Y-147083333D01*
X154803628Y-147083333D02*
X154803628Y-147464285D01*
X155279819Y-145940476D02*
X155279819Y-146511904D01*
X155279819Y-146226190D02*
X154279819Y-146226190D01*
X154279819Y-146226190D02*
X154422676Y-146321428D01*
X154422676Y-146321428D02*
X154517914Y-146416666D01*
X154517914Y-146416666D02*
X154565533Y-146511904D01*
X154613152Y-145083333D02*
X155279819Y-145083333D01*
X154232200Y-145321428D02*
X154946485Y-145559523D01*
X154946485Y-145559523D02*
X154946485Y-144940476D01*
X181516666Y-100884819D02*
X181516666Y-101599104D01*
X181516666Y-101599104D02*
X181469047Y-101741961D01*
X181469047Y-101741961D02*
X181373809Y-101837200D01*
X181373809Y-101837200D02*
X181230952Y-101884819D01*
X181230952Y-101884819D02*
X181135714Y-101884819D01*
X181897619Y-100884819D02*
X182564285Y-100884819D01*
X182564285Y-100884819D02*
X182135714Y-101884819D01*
X162988095Y-130504819D02*
X162988095Y-131314342D01*
X162988095Y-131314342D02*
X163035714Y-131409580D01*
X163035714Y-131409580D02*
X163083333Y-131457200D01*
X163083333Y-131457200D02*
X163178571Y-131504819D01*
X163178571Y-131504819D02*
X163369047Y-131504819D01*
X163369047Y-131504819D02*
X163464285Y-131457200D01*
X163464285Y-131457200D02*
X163511904Y-131409580D01*
X163511904Y-131409580D02*
X163559523Y-131314342D01*
X163559523Y-131314342D02*
X163559523Y-130504819D01*
X164464285Y-130838152D02*
X164464285Y-131504819D01*
X164226190Y-130457200D02*
X163988095Y-131171485D01*
X163988095Y-131171485D02*
X164607142Y-131171485D01*
X162988095Y-142504819D02*
X162988095Y-143314342D01*
X162988095Y-143314342D02*
X163035714Y-143409580D01*
X163035714Y-143409580D02*
X163083333Y-143457200D01*
X163083333Y-143457200D02*
X163178571Y-143504819D01*
X163178571Y-143504819D02*
X163369047Y-143504819D01*
X163369047Y-143504819D02*
X163464285Y-143457200D01*
X163464285Y-143457200D02*
X163511904Y-143409580D01*
X163511904Y-143409580D02*
X163559523Y-143314342D01*
X163559523Y-143314342D02*
X163559523Y-142504819D01*
X164559523Y-143504819D02*
X163988095Y-143504819D01*
X164273809Y-143504819D02*
X164273809Y-142504819D01*
X164273809Y-142504819D02*
X164178571Y-142647676D01*
X164178571Y-142647676D02*
X164083333Y-142742914D01*
X164083333Y-142742914D02*
X163988095Y-142790533D01*
X141441666Y-121504819D02*
X141441666Y-122219104D01*
X141441666Y-122219104D02*
X141394047Y-122361961D01*
X141394047Y-122361961D02*
X141298809Y-122457200D01*
X141298809Y-122457200D02*
X141155952Y-122504819D01*
X141155952Y-122504819D02*
X141060714Y-122504819D01*
X141917857Y-122504819D02*
X141917857Y-121504819D01*
X141917857Y-121504819D02*
X142298809Y-121504819D01*
X142298809Y-121504819D02*
X142394047Y-121552438D01*
X142394047Y-121552438D02*
X142441666Y-121600057D01*
X142441666Y-121600057D02*
X142489285Y-121695295D01*
X142489285Y-121695295D02*
X142489285Y-121838152D01*
X142489285Y-121838152D02*
X142441666Y-121933390D01*
X142441666Y-121933390D02*
X142394047Y-121981009D01*
X142394047Y-121981009D02*
X142298809Y-122028628D01*
X142298809Y-122028628D02*
X141917857Y-122028628D01*
X143394047Y-121504819D02*
X142917857Y-121504819D01*
X142917857Y-121504819D02*
X142870238Y-121981009D01*
X142870238Y-121981009D02*
X142917857Y-121933390D01*
X142917857Y-121933390D02*
X143013095Y-121885771D01*
X143013095Y-121885771D02*
X143251190Y-121885771D01*
X143251190Y-121885771D02*
X143346428Y-121933390D01*
X143346428Y-121933390D02*
X143394047Y-121981009D01*
X143394047Y-121981009D02*
X143441666Y-122076247D01*
X143441666Y-122076247D02*
X143441666Y-122314342D01*
X143441666Y-122314342D02*
X143394047Y-122409580D01*
X143394047Y-122409580D02*
X143346428Y-122457200D01*
X143346428Y-122457200D02*
X143251190Y-122504819D01*
X143251190Y-122504819D02*
X143013095Y-122504819D01*
X143013095Y-122504819D02*
X142917857Y-122457200D01*
X142917857Y-122457200D02*
X142870238Y-122409580D01*
X181833333Y-123409580D02*
X181785714Y-123457200D01*
X181785714Y-123457200D02*
X181642857Y-123504819D01*
X181642857Y-123504819D02*
X181547619Y-123504819D01*
X181547619Y-123504819D02*
X181404762Y-123457200D01*
X181404762Y-123457200D02*
X181309524Y-123361961D01*
X181309524Y-123361961D02*
X181261905Y-123266723D01*
X181261905Y-123266723D02*
X181214286Y-123076247D01*
X181214286Y-123076247D02*
X181214286Y-122933390D01*
X181214286Y-122933390D02*
X181261905Y-122742914D01*
X181261905Y-122742914D02*
X181309524Y-122647676D01*
X181309524Y-122647676D02*
X181404762Y-122552438D01*
X181404762Y-122552438D02*
X181547619Y-122504819D01*
X181547619Y-122504819D02*
X181642857Y-122504819D01*
X181642857Y-122504819D02*
X181785714Y-122552438D01*
X181785714Y-122552438D02*
X181833333Y-122600057D01*
X182785714Y-123504819D02*
X182214286Y-123504819D01*
X182500000Y-123504819D02*
X182500000Y-122504819D01*
X182500000Y-122504819D02*
X182404762Y-122647676D01*
X182404762Y-122647676D02*
X182309524Y-122742914D01*
X182309524Y-122742914D02*
X182214286Y-122790533D01*
X162988095Y-138504819D02*
X162988095Y-139314342D01*
X162988095Y-139314342D02*
X163035714Y-139409580D01*
X163035714Y-139409580D02*
X163083333Y-139457200D01*
X163083333Y-139457200D02*
X163178571Y-139504819D01*
X163178571Y-139504819D02*
X163369047Y-139504819D01*
X163369047Y-139504819D02*
X163464285Y-139457200D01*
X163464285Y-139457200D02*
X163511904Y-139409580D01*
X163511904Y-139409580D02*
X163559523Y-139314342D01*
X163559523Y-139314342D02*
X163559523Y-138504819D01*
X163988095Y-138600057D02*
X164035714Y-138552438D01*
X164035714Y-138552438D02*
X164130952Y-138504819D01*
X164130952Y-138504819D02*
X164369047Y-138504819D01*
X164369047Y-138504819D02*
X164464285Y-138552438D01*
X164464285Y-138552438D02*
X164511904Y-138600057D01*
X164511904Y-138600057D02*
X164559523Y-138695295D01*
X164559523Y-138695295D02*
X164559523Y-138790533D01*
X164559523Y-138790533D02*
X164511904Y-138933390D01*
X164511904Y-138933390D02*
X163940476Y-139504819D01*
X163940476Y-139504819D02*
X164559523Y-139504819D01*
X155279819Y-122867857D02*
X154803628Y-123201190D01*
X155279819Y-123439285D02*
X154279819Y-123439285D01*
X154279819Y-123439285D02*
X154279819Y-123058333D01*
X154279819Y-123058333D02*
X154327438Y-122963095D01*
X154327438Y-122963095D02*
X154375057Y-122915476D01*
X154375057Y-122915476D02*
X154470295Y-122867857D01*
X154470295Y-122867857D02*
X154613152Y-122867857D01*
X154613152Y-122867857D02*
X154708390Y-122915476D01*
X154708390Y-122915476D02*
X154756009Y-122963095D01*
X154756009Y-122963095D02*
X154803628Y-123058333D01*
X154803628Y-123058333D02*
X154803628Y-123439285D01*
X155279819Y-121915476D02*
X155279819Y-122486904D01*
X155279819Y-122201190D02*
X154279819Y-122201190D01*
X154279819Y-122201190D02*
X154422676Y-122296428D01*
X154422676Y-122296428D02*
X154517914Y-122391666D01*
X154517914Y-122391666D02*
X154565533Y-122486904D01*
X154375057Y-121534523D02*
X154327438Y-121486904D01*
X154327438Y-121486904D02*
X154279819Y-121391666D01*
X154279819Y-121391666D02*
X154279819Y-121153571D01*
X154279819Y-121153571D02*
X154327438Y-121058333D01*
X154327438Y-121058333D02*
X154375057Y-121010714D01*
X154375057Y-121010714D02*
X154470295Y-120963095D01*
X154470295Y-120963095D02*
X154565533Y-120963095D01*
X154565533Y-120963095D02*
X154708390Y-121010714D01*
X154708390Y-121010714D02*
X155279819Y-121582142D01*
X155279819Y-121582142D02*
X155279819Y-120963095D01*
X148674819Y-103333333D02*
X149389104Y-103333333D01*
X149389104Y-103333333D02*
X149531961Y-103380952D01*
X149531961Y-103380952D02*
X149627200Y-103476190D01*
X149627200Y-103476190D02*
X149674819Y-103619047D01*
X149674819Y-103619047D02*
X149674819Y-103714285D01*
X149008152Y-102428571D02*
X149674819Y-102428571D01*
X148627200Y-102666666D02*
X149341485Y-102904761D01*
X149341485Y-102904761D02*
X149341485Y-102285714D01*
X169079819Y-129008333D02*
X169794104Y-129008333D01*
X169794104Y-129008333D02*
X169936961Y-129055952D01*
X169936961Y-129055952D02*
X170032200Y-129151190D01*
X170032200Y-129151190D02*
X170079819Y-129294047D01*
X170079819Y-129294047D02*
X170079819Y-129389285D01*
X169079819Y-128627380D02*
X169079819Y-128008333D01*
X169079819Y-128008333D02*
X169460771Y-128341666D01*
X169460771Y-128341666D02*
X169460771Y-128198809D01*
X169460771Y-128198809D02*
X169508390Y-128103571D01*
X169508390Y-128103571D02*
X169556009Y-128055952D01*
X169556009Y-128055952D02*
X169651247Y-128008333D01*
X169651247Y-128008333D02*
X169889342Y-128008333D01*
X169889342Y-128008333D02*
X169984580Y-128055952D01*
X169984580Y-128055952D02*
X170032200Y-128103571D01*
X170032200Y-128103571D02*
X170079819Y-128198809D01*
X170079819Y-128198809D02*
X170079819Y-128484523D01*
X170079819Y-128484523D02*
X170032200Y-128579761D01*
X170032200Y-128579761D02*
X169984580Y-128627380D01*
X145904819Y-147817857D02*
X145428628Y-148151190D01*
X145904819Y-148389285D02*
X144904819Y-148389285D01*
X144904819Y-148389285D02*
X144904819Y-148008333D01*
X144904819Y-148008333D02*
X144952438Y-147913095D01*
X144952438Y-147913095D02*
X145000057Y-147865476D01*
X145000057Y-147865476D02*
X145095295Y-147817857D01*
X145095295Y-147817857D02*
X145238152Y-147817857D01*
X145238152Y-147817857D02*
X145333390Y-147865476D01*
X145333390Y-147865476D02*
X145381009Y-147913095D01*
X145381009Y-147913095D02*
X145428628Y-148008333D01*
X145428628Y-148008333D02*
X145428628Y-148389285D01*
X145904819Y-146865476D02*
X145904819Y-147436904D01*
X145904819Y-147151190D02*
X144904819Y-147151190D01*
X144904819Y-147151190D02*
X145047676Y-147246428D01*
X145047676Y-147246428D02*
X145142914Y-147341666D01*
X145142914Y-147341666D02*
X145190533Y-147436904D01*
X144904819Y-146532142D02*
X144904819Y-145913095D01*
X144904819Y-145913095D02*
X145285771Y-146246428D01*
X145285771Y-146246428D02*
X145285771Y-146103571D01*
X145285771Y-146103571D02*
X145333390Y-146008333D01*
X145333390Y-146008333D02*
X145381009Y-145960714D01*
X145381009Y-145960714D02*
X145476247Y-145913095D01*
X145476247Y-145913095D02*
X145714342Y-145913095D01*
X145714342Y-145913095D02*
X145809580Y-145960714D01*
X145809580Y-145960714D02*
X145857200Y-146008333D01*
X145857200Y-146008333D02*
X145904819Y-146103571D01*
X145904819Y-146103571D02*
X145904819Y-146389285D01*
X145904819Y-146389285D02*
X145857200Y-146484523D01*
X145857200Y-146484523D02*
X145809580Y-146532142D01*
X162988095Y-134504819D02*
X162988095Y-135314342D01*
X162988095Y-135314342D02*
X163035714Y-135409580D01*
X163035714Y-135409580D02*
X163083333Y-135457200D01*
X163083333Y-135457200D02*
X163178571Y-135504819D01*
X163178571Y-135504819D02*
X163369047Y-135504819D01*
X163369047Y-135504819D02*
X163464285Y-135457200D01*
X163464285Y-135457200D02*
X163511904Y-135409580D01*
X163511904Y-135409580D02*
X163559523Y-135314342D01*
X163559523Y-135314342D02*
X163559523Y-134504819D01*
X163940476Y-134504819D02*
X164559523Y-134504819D01*
X164559523Y-134504819D02*
X164226190Y-134885771D01*
X164226190Y-134885771D02*
X164369047Y-134885771D01*
X164369047Y-134885771D02*
X164464285Y-134933390D01*
X164464285Y-134933390D02*
X164511904Y-134981009D01*
X164511904Y-134981009D02*
X164559523Y-135076247D01*
X164559523Y-135076247D02*
X164559523Y-135314342D01*
X164559523Y-135314342D02*
X164511904Y-135409580D01*
X164511904Y-135409580D02*
X164464285Y-135457200D01*
X164464285Y-135457200D02*
X164369047Y-135504819D01*
X164369047Y-135504819D02*
X164083333Y-135504819D01*
X164083333Y-135504819D02*
X163988095Y-135457200D01*
X163988095Y-135457200D02*
X163940476Y-135409580D01*
X136104819Y-148133333D02*
X136819104Y-148133333D01*
X136819104Y-148133333D02*
X136961961Y-148180952D01*
X136961961Y-148180952D02*
X137057200Y-148276190D01*
X137057200Y-148276190D02*
X137104819Y-148419047D01*
X137104819Y-148419047D02*
X137104819Y-148514285D01*
X136200057Y-147704761D02*
X136152438Y-147657142D01*
X136152438Y-147657142D02*
X136104819Y-147561904D01*
X136104819Y-147561904D02*
X136104819Y-147323809D01*
X136104819Y-147323809D02*
X136152438Y-147228571D01*
X136152438Y-147228571D02*
X136200057Y-147180952D01*
X136200057Y-147180952D02*
X136295295Y-147133333D01*
X136295295Y-147133333D02*
X136390533Y-147133333D01*
X136390533Y-147133333D02*
X136533390Y-147180952D01*
X136533390Y-147180952D02*
X137104819Y-147752380D01*
X137104819Y-147752380D02*
X137104819Y-147133333D01*
X135904819Y-102333333D02*
X136619104Y-102333333D01*
X136619104Y-102333333D02*
X136761961Y-102380952D01*
X136761961Y-102380952D02*
X136857200Y-102476190D01*
X136857200Y-102476190D02*
X136904819Y-102619047D01*
X136904819Y-102619047D02*
X136904819Y-102714285D01*
X136904819Y-101333333D02*
X136904819Y-101904761D01*
X136904819Y-101619047D02*
X135904819Y-101619047D01*
X135904819Y-101619047D02*
X136047676Y-101714285D01*
X136047676Y-101714285D02*
X136142914Y-101809523D01*
X136142914Y-101809523D02*
X136190533Y-101904761D01*
X162988095Y-122504819D02*
X162988095Y-123314342D01*
X162988095Y-123314342D02*
X163035714Y-123409580D01*
X163035714Y-123409580D02*
X163083333Y-123457200D01*
X163083333Y-123457200D02*
X163178571Y-123504819D01*
X163178571Y-123504819D02*
X163369047Y-123504819D01*
X163369047Y-123504819D02*
X163464285Y-123457200D01*
X163464285Y-123457200D02*
X163511904Y-123409580D01*
X163511904Y-123409580D02*
X163559523Y-123314342D01*
X163559523Y-123314342D02*
X163559523Y-122504819D01*
X164464285Y-122504819D02*
X164273809Y-122504819D01*
X164273809Y-122504819D02*
X164178571Y-122552438D01*
X164178571Y-122552438D02*
X164130952Y-122600057D01*
X164130952Y-122600057D02*
X164035714Y-122742914D01*
X164035714Y-122742914D02*
X163988095Y-122933390D01*
X163988095Y-122933390D02*
X163988095Y-123314342D01*
X163988095Y-123314342D02*
X164035714Y-123409580D01*
X164035714Y-123409580D02*
X164083333Y-123457200D01*
X164083333Y-123457200D02*
X164178571Y-123504819D01*
X164178571Y-123504819D02*
X164369047Y-123504819D01*
X164369047Y-123504819D02*
X164464285Y-123457200D01*
X164464285Y-123457200D02*
X164511904Y-123409580D01*
X164511904Y-123409580D02*
X164559523Y-123314342D01*
X164559523Y-123314342D02*
X164559523Y-123076247D01*
X164559523Y-123076247D02*
X164511904Y-122981009D01*
X164511904Y-122981009D02*
X164464285Y-122933390D01*
X164464285Y-122933390D02*
X164369047Y-122885771D01*
X164369047Y-122885771D02*
X164178571Y-122885771D01*
X164178571Y-122885771D02*
X164083333Y-122933390D01*
X164083333Y-122933390D02*
X164035714Y-122981009D01*
X164035714Y-122981009D02*
X163988095Y-123076247D01*
%TO.C,R2*%
D13*
X152477500Y-141987742D02*
X152477500Y-142462258D01*
X153522500Y-141987742D02*
X153522500Y-142462258D01*
%TO.C,R1*%
X146477500Y-142937742D02*
X146477500Y-143412258D01*
X147522500Y-142937742D02*
X147522500Y-143412258D01*
%TO.C,JP3*%
X137825000Y-103050000D02*
X140625000Y-103050000D01*
X137825000Y-105050000D02*
X137825000Y-103050000D01*
X140625000Y-103050000D02*
X140625000Y-105050000D01*
X140625000Y-105050000D02*
X137825000Y-105050000D01*
%TO.C,JP8*%
X176000000Y-124275000D02*
X178800000Y-124275000D01*
X176000000Y-126275000D02*
X176000000Y-124275000D01*
X178800000Y-124275000D02*
X178800000Y-126275000D01*
X178800000Y-126275000D02*
X176000000Y-126275000D01*
%TO.C,R10*%
X152477500Y-125987742D02*
X152477500Y-126462258D01*
X153522500Y-125987742D02*
X153522500Y-126462258D01*
%TO.C,R8*%
X152477500Y-129987742D02*
X152477500Y-130462258D01*
X153522500Y-129987742D02*
X153522500Y-130462258D01*
%TO.C,R6*%
X152477500Y-133987742D02*
X152477500Y-134462258D01*
X153522500Y-133987742D02*
X153522500Y-134462258D01*
%TO.C,R15*%
X162237742Y-119627500D02*
X162712258Y-119627500D01*
X162237742Y-120672500D02*
X162712258Y-120672500D01*
%TO.C,R9*%
X146477500Y-126937742D02*
X146477500Y-127412258D01*
X147522500Y-126937742D02*
X147522500Y-127412258D01*
%TO.C,C2*%
X175665580Y-122565000D02*
X175384420Y-122565000D01*
X175665580Y-123585000D02*
X175384420Y-123585000D01*
%TO.C,Q2*%
X150000000Y-137490000D02*
X149350000Y-137490000D01*
X150000000Y-137490000D02*
X150650000Y-137490000D01*
X150000000Y-140610000D02*
X149350000Y-140610000D01*
X150000000Y-140610000D02*
X150650000Y-140610000D01*
X148837500Y-137540000D02*
X148597500Y-137210000D01*
X149077500Y-137210000D01*
X148837500Y-137540000D01*
G36*
X148837500Y-137540000D02*
G01*
X148597500Y-137210000D01*
X149077500Y-137210000D01*
X148837500Y-137540000D01*
G37*
%TO.C,JP4*%
X137825000Y-115050000D02*
X140625000Y-115050000D01*
X137825000Y-117050000D02*
X137825000Y-115050000D01*
X140625000Y-115050000D02*
X140625000Y-117050000D01*
X140625000Y-117050000D02*
X137825000Y-117050000D01*
%TO.C,U8*%
X177450000Y-118902500D02*
X176650000Y-118902500D01*
X177450000Y-118902500D02*
X178250000Y-118902500D01*
X177450000Y-122022500D02*
X176650000Y-122022500D01*
X177450000Y-122022500D02*
X178250000Y-122022500D01*
X176150000Y-118952500D02*
X175910000Y-118622500D01*
X176390000Y-118622500D01*
X176150000Y-118952500D01*
G36*
X176150000Y-118952500D02*
G01*
X175910000Y-118622500D01*
X176390000Y-118622500D01*
X176150000Y-118952500D01*
G37*
%TO.C,Q3*%
X150000000Y-133490000D02*
X149350000Y-133490000D01*
X150000000Y-133490000D02*
X150650000Y-133490000D01*
X150000000Y-136610000D02*
X149350000Y-136610000D01*
X150000000Y-136610000D02*
X150650000Y-136610000D01*
X148837500Y-133540000D02*
X148597500Y-133210000D01*
X149077500Y-133210000D01*
X148837500Y-133540000D01*
G36*
X148837500Y-133540000D02*
G01*
X148597500Y-133210000D01*
X149077500Y-133210000D01*
X148837500Y-133540000D01*
G37*
%TO.C,R3*%
X146477500Y-138937742D02*
X146477500Y-139412258D01*
X147522500Y-138937742D02*
X147522500Y-139412258D01*
%TO.C,U5*%
X160500000Y-125490000D02*
X159700000Y-125490000D01*
X160500000Y-125490000D02*
X161300000Y-125490000D01*
X160500000Y-128610000D02*
X159700000Y-128610000D01*
X160500000Y-128610000D02*
X161300000Y-128610000D01*
X159200000Y-125540000D02*
X158960000Y-125210000D01*
X159440000Y-125210000D01*
X159200000Y-125540000D01*
G36*
X159200000Y-125540000D02*
G01*
X158960000Y-125210000D01*
X159440000Y-125210000D01*
X159200000Y-125540000D01*
G37*
%TO.C,Q1*%
X150000000Y-141490000D02*
X149350000Y-141490000D01*
X150000000Y-141490000D02*
X150650000Y-141490000D01*
X150000000Y-144610000D02*
X149350000Y-144610000D01*
X150000000Y-144610000D02*
X150650000Y-144610000D01*
X148837500Y-141540000D02*
X148597500Y-141210000D01*
X149077500Y-141210000D01*
X148837500Y-141540000D01*
G36*
X148837500Y-141540000D02*
G01*
X148597500Y-141210000D01*
X149077500Y-141210000D01*
X148837500Y-141540000D01*
G37*
%TO.C,J5*%
X150220000Y-112330000D02*
X150220000Y-111000000D01*
X151550000Y-112330000D02*
X150220000Y-112330000D01*
X152820000Y-109670000D02*
X170660000Y-109670000D01*
X152820000Y-112330000D02*
X152820000Y-109670000D01*
X152820000Y-112330000D02*
X170660000Y-112330000D01*
X170660000Y-112330000D02*
X170660000Y-109670000D01*
%TO.C,JP7*%
X137825000Y-106050000D02*
X140625000Y-106050000D01*
X137825000Y-108050000D02*
X137825000Y-106050000D01*
X140625000Y-106050000D02*
X140625000Y-108050000D01*
X140625000Y-108050000D02*
X137825000Y-108050000D01*
%TO.C,JP6*%
X137825000Y-109050000D02*
X140625000Y-109050000D01*
X137825000Y-111050000D02*
X137825000Y-109050000D01*
X140625000Y-109050000D02*
X140625000Y-111050000D01*
X140625000Y-111050000D02*
X137825000Y-111050000D01*
%TO.C,JP2*%
X137825000Y-112050000D02*
X140625000Y-112050000D01*
X137825000Y-114050000D02*
X137825000Y-112050000D01*
X140625000Y-112050000D02*
X140625000Y-114050000D01*
X140625000Y-114050000D02*
X137825000Y-114050000D01*
%TO.C,R4*%
X152477500Y-137987742D02*
X152477500Y-138462258D01*
X153522500Y-137987742D02*
X153522500Y-138462258D01*
%TO.C,JP1*%
X137825000Y-118050000D02*
X140625000Y-118050000D01*
X137825000Y-120050000D02*
X137825000Y-118050000D01*
X140625000Y-118050000D02*
X140625000Y-120050000D01*
X140625000Y-120050000D02*
X137825000Y-120050000D01*
%TO.C,U7*%
X160500000Y-145490000D02*
X159700000Y-145490000D01*
X160500000Y-145490000D02*
X161300000Y-145490000D01*
X160500000Y-148610000D02*
X159700000Y-148610000D01*
X160500000Y-148610000D02*
X161300000Y-148610000D01*
X159200000Y-145540000D02*
X158960000Y-145210000D01*
X159440000Y-145210000D01*
X159200000Y-145540000D01*
G36*
X159200000Y-145540000D02*
G01*
X158960000Y-145210000D01*
X159440000Y-145210000D01*
X159200000Y-145540000D01*
G37*
%TO.C,J6*%
X160330000Y-116120000D02*
X160330000Y-118780000D01*
X162930000Y-116120000D02*
X160330000Y-116120000D01*
X162930000Y-116120000D02*
X162930000Y-118780000D01*
X162930000Y-118780000D02*
X160330000Y-118780000D01*
X164200000Y-116120000D02*
X165530000Y-116120000D01*
X165530000Y-116120000D02*
X165530000Y-117450000D01*
%TO.C,Q7*%
X150000000Y-145490000D02*
X149350000Y-145490000D01*
X150000000Y-145490000D02*
X150650000Y-145490000D01*
X150000000Y-148610000D02*
X149350000Y-148610000D01*
X150000000Y-148610000D02*
X150650000Y-148610000D01*
X148837500Y-145540000D02*
X148597500Y-145210000D01*
X149077500Y-145210000D01*
X148837500Y-145540000D01*
G36*
X148837500Y-145540000D02*
G01*
X148597500Y-145210000D01*
X149077500Y-145210000D01*
X148837500Y-145540000D01*
G37*
%TO.C,R11*%
X146477500Y-122937742D02*
X146477500Y-123412258D01*
X147522500Y-122937742D02*
X147522500Y-123412258D01*
%TO.C,R7*%
X146477500Y-130937742D02*
X146477500Y-131412258D01*
X147522500Y-130937742D02*
X147522500Y-131412258D01*
%TO.C,R5*%
X146477500Y-134937742D02*
X146477500Y-135412258D01*
X147522500Y-134937742D02*
X147522500Y-135412258D01*
%TO.C,Q4*%
X150000000Y-129490000D02*
X149350000Y-129490000D01*
X150000000Y-129490000D02*
X150650000Y-129490000D01*
X150000000Y-132610000D02*
X149350000Y-132610000D01*
X150000000Y-132610000D02*
X150650000Y-132610000D01*
X148837500Y-129540000D02*
X148597500Y-129210000D01*
X149077500Y-129210000D01*
X148837500Y-129540000D01*
G36*
X148837500Y-129540000D02*
G01*
X148597500Y-129210000D01*
X149077500Y-129210000D01*
X148837500Y-129540000D01*
G37*
%TO.C,Q6*%
X150000000Y-121490000D02*
X149350000Y-121490000D01*
X150000000Y-121490000D02*
X150650000Y-121490000D01*
X150000000Y-124610000D02*
X149350000Y-124610000D01*
X150000000Y-124610000D02*
X150650000Y-124610000D01*
X148837500Y-121540000D02*
X148597500Y-121210000D01*
X149077500Y-121210000D01*
X148837500Y-121540000D01*
G36*
X148837500Y-121540000D02*
G01*
X148597500Y-121210000D01*
X149077500Y-121210000D01*
X148837500Y-121540000D01*
G37*
%TO.C,Q5*%
X150000000Y-125490000D02*
X149350000Y-125490000D01*
X150000000Y-125490000D02*
X150650000Y-125490000D01*
X150000000Y-128610000D02*
X149350000Y-128610000D01*
X150000000Y-128610000D02*
X150650000Y-128610000D01*
X148837500Y-125540000D02*
X148597500Y-125210000D01*
X149077500Y-125210000D01*
X148837500Y-125540000D01*
G36*
X148837500Y-125540000D02*
G01*
X148597500Y-125210000D01*
X149077500Y-125210000D01*
X148837500Y-125540000D01*
G37*
%TO.C,R14*%
X152477500Y-146012742D02*
X152477500Y-146487258D01*
X153522500Y-146012742D02*
X153522500Y-146487258D01*
%TO.C,J7*%
X180520000Y-102430000D02*
X181850000Y-102430000D01*
X180520000Y-103760000D02*
X180520000Y-102430000D01*
X180520000Y-105030000D02*
X180520000Y-115250000D01*
X180520000Y-105030000D02*
X183180000Y-105030000D01*
X180520000Y-115250000D02*
X183180000Y-115250000D01*
X183180000Y-105030000D02*
X183180000Y-115250000D01*
%TO.C,U4*%
X160500000Y-129490000D02*
X159700000Y-129490000D01*
X160500000Y-129490000D02*
X161300000Y-129490000D01*
X160500000Y-132610000D02*
X159700000Y-132610000D01*
X160500000Y-132610000D02*
X161300000Y-132610000D01*
X159200000Y-129540000D02*
X158960000Y-129210000D01*
X159440000Y-129210000D01*
X159200000Y-129540000D01*
G36*
X159200000Y-129540000D02*
G01*
X158960000Y-129210000D01*
X159440000Y-129210000D01*
X159200000Y-129540000D01*
G37*
%TO.C,U1*%
X160500000Y-141490000D02*
X159700000Y-141490000D01*
X160500000Y-141490000D02*
X161300000Y-141490000D01*
X160500000Y-144610000D02*
X159700000Y-144610000D01*
X160500000Y-144610000D02*
X161300000Y-144610000D01*
X159200000Y-141540000D02*
X158960000Y-141210000D01*
X159440000Y-141210000D01*
X159200000Y-141540000D01*
G36*
X159200000Y-141540000D02*
G01*
X158960000Y-141210000D01*
X159440000Y-141210000D01*
X159200000Y-141540000D01*
G37*
%TO.C,JP5*%
X137825000Y-121050000D02*
X140625000Y-121050000D01*
X137825000Y-123050000D02*
X137825000Y-121050000D01*
X140625000Y-121050000D02*
X140625000Y-123050000D01*
X140625000Y-123050000D02*
X137825000Y-123050000D01*
%TO.C,C1*%
X179209420Y-122540000D02*
X179490580Y-122540000D01*
X179209420Y-123560000D02*
X179490580Y-123560000D01*
%TO.C,U2*%
X160500000Y-137490000D02*
X159700000Y-137490000D01*
X160500000Y-137490000D02*
X161300000Y-137490000D01*
X160500000Y-140610000D02*
X159700000Y-140610000D01*
X160500000Y-140610000D02*
X161300000Y-140610000D01*
X159200000Y-137540000D02*
X158960000Y-137210000D01*
X159440000Y-137210000D01*
X159200000Y-137540000D01*
G36*
X159200000Y-137540000D02*
G01*
X158960000Y-137210000D01*
X159440000Y-137210000D01*
X159200000Y-137540000D01*
G37*
%TO.C,R12*%
X152477500Y-121987742D02*
X152477500Y-122462258D01*
X153522500Y-121987742D02*
X153522500Y-122462258D01*
%TO.C,J4*%
X150220000Y-104330000D02*
X150220000Y-103000000D01*
X151550000Y-104330000D02*
X150220000Y-104330000D01*
X152820000Y-101670000D02*
X170660000Y-101670000D01*
X152820000Y-104330000D02*
X152820000Y-101670000D01*
X152820000Y-104330000D02*
X170660000Y-104330000D01*
X170660000Y-104330000D02*
X170660000Y-101670000D01*
%TO.C,J3*%
X166100000Y-139950000D02*
X166100000Y-140650000D01*
X167975000Y-129900000D02*
X170975000Y-129900000D01*
X167975000Y-130825000D02*
X167975000Y-129900000D01*
X167975000Y-142275000D02*
X167975000Y-143200000D01*
X167975000Y-143200000D02*
X170975000Y-143200000D01*
X184450000Y-128900000D02*
X184450000Y-129900000D01*
X184450000Y-129900000D02*
X174925000Y-129900000D01*
X184450000Y-143200000D02*
X174925000Y-143200000D01*
X184450000Y-144200000D02*
X184450000Y-143200000D01*
X184825000Y-128900000D02*
X184450000Y-128900000D01*
X184825000Y-144200000D02*
X184450000Y-144200000D01*
X184825000Y-144200000D02*
X184825000Y-128900000D01*
%TO.C,R13*%
X146477500Y-146937742D02*
X146477500Y-147412258D01*
X147522500Y-146937742D02*
X147522500Y-147412258D01*
%TO.C,U3*%
X160500000Y-133490000D02*
X159700000Y-133490000D01*
X160500000Y-133490000D02*
X161300000Y-133490000D01*
X160500000Y-136610000D02*
X159700000Y-136610000D01*
X160500000Y-136610000D02*
X161300000Y-136610000D01*
X159200000Y-133540000D02*
X158960000Y-133210000D01*
X159440000Y-133210000D01*
X159200000Y-133540000D01*
G36*
X159200000Y-133540000D02*
G01*
X158960000Y-133210000D01*
X159440000Y-133210000D01*
X159200000Y-133540000D01*
G37*
%TO.C,J2*%
X125590000Y-127285000D02*
X125590000Y-145965000D01*
X129160000Y-125565000D02*
X133410000Y-125565000D01*
X129160000Y-147685000D02*
X133410000Y-147685000D01*
X131810000Y-126585000D02*
X131810000Y-127865000D01*
X131810000Y-127865000D02*
X134700000Y-127865000D01*
X131810000Y-146665000D02*
X131810000Y-145385000D01*
X133410000Y-125565000D02*
X133410000Y-126585000D01*
X133410000Y-126585000D02*
X131810000Y-126585000D01*
X133410000Y-146665000D02*
X131810000Y-146665000D01*
X133410000Y-147685000D02*
X133410000Y-146665000D01*
%TO.C,J1*%
X125590000Y-104035000D02*
X125590000Y-122715000D01*
X129160000Y-102315000D02*
X133410000Y-102315000D01*
X129160000Y-124435000D02*
X133410000Y-124435000D01*
X131810000Y-103335000D02*
X131810000Y-104615000D01*
X131810000Y-104615000D02*
X134700000Y-104615000D01*
X131810000Y-123415000D02*
X131810000Y-122135000D01*
X133410000Y-102315000D02*
X133410000Y-103335000D01*
X133410000Y-103335000D02*
X131810000Y-103335000D01*
X133410000Y-123415000D02*
X131810000Y-123415000D01*
X133410000Y-124435000D02*
X133410000Y-123415000D01*
%TO.C,U6*%
X160500000Y-121490000D02*
X159700000Y-121490000D01*
X160500000Y-121490000D02*
X161300000Y-121490000D01*
X160500000Y-124610000D02*
X159700000Y-124610000D01*
X160500000Y-124610000D02*
X161300000Y-124610000D01*
X159200000Y-121540000D02*
X158960000Y-121210000D01*
X159440000Y-121210000D01*
X159200000Y-121540000D01*
G36*
X159200000Y-121540000D02*
G01*
X158960000Y-121210000D01*
X159440000Y-121210000D01*
X159200000Y-121540000D01*
G37*
%TD*%
M02*
