M48
; DRILL file KiCad 10.0.5 date 2026-08-09T09:16:15
; FORMAT={-:-/ absolute / metric / decimal}
; #@! TF.CreationDate,2026-08-09T09:16:15-06:00
; #@! TF.GenerationSoftware,Kicad,Pcbnew,10.0.5
; #@! TF.FileFunction,Plated,1,2,PTH
FMAT,2
METRIC
; #@! TA.AperFunction,Plated,PTH,ViaDrill
T1C0.300
; #@! TA.AperFunction,Plated,PTH,ViaDrill
T2C0.450
; #@! TA.AperFunction,Plated,PTH,ComponentDrill
T3C1.000
; #@! TA.AperFunction,Plated,PTH,ComponentDrill
T4C1.120
%
G90
G05
T1
X126.375Y-106.45
X126.375Y-108.45
X126.375Y-110.45
X126.375Y-112.45
X126.375Y-114.45
X126.375Y-116.45
X126.375Y-118.45
X126.375Y-142.45
X126.375Y-144.45
X127.275Y-120.45
X128.075Y-118.275
X128.375Y-106.45
X128.375Y-108.45
X128.375Y-110.45
X128.375Y-144.45
X128.875Y-114.5
X129.675Y-112.025
X130.375Y-102.45
X130.375Y-124.45
X130.375Y-146.45
X130.375Y-148.45
X130.475Y-109.95
X130.65Y-132.6
X130.65Y-134.625
X130.65Y-136.625
X130.65Y-140.625
X130.65Y-142.625
X132.375Y-146.45
X132.375Y-148.45
X134.325Y-123.425
X134.35Y-125.875
X134.375Y-146.45
X134.375Y-148.45
X136.375Y-140.45
X136.375Y-142.45
X136.375Y-144.45
X136.375Y-146.45
X136.375Y-148.45
X136.6Y-138.025
X136.7Y-122.575
X138.375Y-124.45
X138.375Y-126.45
X138.375Y-128.45
X138.375Y-130.45
X138.375Y-132.45
X138.375Y-134.45
X138.375Y-136.45
X138.375Y-138.45
X138.375Y-140.45
X138.375Y-142.45
X138.375Y-144.45
X138.375Y-146.45
X138.375Y-148.45
X140.375Y-130.45
X140.375Y-132.45
X140.375Y-134.45
X140.375Y-136.45
X140.375Y-138.45
X140.375Y-140.45
X140.375Y-142.45
X140.375Y-144.45
X140.375Y-146.45
X140.375Y-148.45
X141.3Y-122.525
X141.3Y-126.9
X142.1Y-119.675
X142.1Y-143.275
X142.375Y-108.45
X142.375Y-146.45
X142.375Y-148.45
X142.9Y-116.75
X142.9Y-131.275
X142.9Y-133.775
X142.9Y-137.025
X143.7Y-138.975
X143.725Y-114.125
X143.75Y-141.575
X144.525Y-110.65
X144.525Y-123.3
X145.325Y-108.175
X145.325Y-111.45
X145.325Y-147.225
X145.425Y-135.3
X146.125Y-104.975
X146.125Y-107.275
X146.925Y-106.475
X146.925Y-114.125
X146.925Y-119.275
X147.75Y-105.65
X148.137Y-119.262
X148.525Y-107.968
X148.525Y-116.7
X149.325Y-108.679
X150.375Y-114.45
X150.375Y-116.45
X150.425Y-145.075
X150.525Y-141.925
X150.6Y-129.975
X150.6Y-138.0
X150.625Y-133.9
X150.7Y-126.0
X152.375Y-114.45
X152.65Y-119.6
X154.075Y-143.05
X154.875Y-139.05
X155.675Y-135.05
X156.075Y-145.125
X156.475Y-130.1
X156.475Y-141.05
X156.925Y-133.125
X157.05Y-135.05
X157.1Y-143.1
X157.2Y-139.1
X157.25Y-131.075
X157.275Y-126.1
X157.275Y-127.2
X157.35Y-147.075
X158.075Y-122.1
X158.075Y-123.125
X158.1Y-146.1
X159.025Y-117.35
X159.025Y-120.25
X159.05Y-118.85
X159.325Y-141.05
X159.425Y-137.025
X160.65Y-137.025
X161.6Y-141.025
X163.3Y-122.1
X163.3Y-126.1
X163.3Y-130.075
X163.3Y-134.1
X163.3Y-138.05
X163.3Y-142.1
X163.3Y-146.075
X165.425Y-128.175
X166.2Y-129.625
X166.375Y-116.45
X166.375Y-118.45
X166.375Y-124.45
X168.375Y-118.45
X168.375Y-124.45
X168.375Y-126.45
X168.375Y-148.45
X169.5Y-115.6
X170.375Y-126.45
X170.375Y-128.45
X170.375Y-130.45
X170.375Y-132.45
X170.375Y-134.45
X170.375Y-136.45
X170.375Y-138.45
X170.375Y-146.45
X170.375Y-148.45
X172.375Y-102.45
X172.375Y-104.45
X172.375Y-110.45
X172.375Y-120.45
X172.375Y-126.45
X172.375Y-136.45
X172.375Y-146.45
X172.375Y-148.45
X174.375Y-102.45
X174.375Y-104.45
X174.375Y-126.45
X174.375Y-136.45
X174.375Y-146.45
X174.375Y-148.45
X175.25Y-116.425
X175.25Y-117.875
X176.275Y-117.875
X176.35Y-115.2
X176.375Y-102.45
X176.375Y-104.45
X176.375Y-116.45
X176.375Y-128.45
X176.375Y-130.45
X176.375Y-132.45
X176.375Y-134.45
X176.375Y-136.45
X176.375Y-138.45
X176.375Y-140.45
X176.375Y-142.45
X176.375Y-144.45
X176.375Y-146.45
X176.375Y-148.45
X177.3Y-117.875
X177.325Y-115.2
X177.35Y-116.425
X178.375Y-102.45
X178.375Y-104.45
X178.375Y-128.45
X178.375Y-130.45
X178.375Y-132.45
X178.375Y-134.45
X178.375Y-136.45
X178.375Y-138.45
X178.375Y-140.45
X178.375Y-142.45
X178.375Y-144.45
X178.375Y-146.45
X178.375Y-148.45
X180.375Y-116.45
X180.375Y-118.45
X180.375Y-120.45
X180.375Y-124.45
X180.375Y-126.45
X180.375Y-128.45
X180.375Y-130.45
X180.375Y-132.45
X180.375Y-134.45
X180.375Y-136.45
X180.375Y-138.45
X180.375Y-140.45
X180.375Y-142.45
X180.375Y-144.45
X180.375Y-146.45
X180.375Y-148.45
X182.375Y-116.45
X182.375Y-118.45
X182.375Y-120.45
X182.375Y-122.45
X182.375Y-124.45
X182.375Y-126.45
X182.375Y-128.45
X182.375Y-130.45
X182.375Y-132.45
X182.375Y-134.45
X182.375Y-136.45
X182.375Y-138.45
X182.375Y-140.45
X182.375Y-142.45
X182.375Y-144.45
X182.375Y-146.45
X182.375Y-148.45
T2
X132.95Y-104.0
X132.95Y-127.3
X135.7Y-130.625
X135.725Y-106.775
X149.05Y-121.0
X149.05Y-125.05
X149.05Y-129.05
X149.05Y-133.05
X149.05Y-137.075
X149.05Y-141.05
X149.05Y-145.05
X151.725Y-121.4
X151.725Y-125.4
X151.725Y-129.425
X151.725Y-133.4
X151.725Y-137.4
X151.725Y-141.375
X151.725Y-145.425
X164.2Y-123.05
X164.2Y-127.05
X164.2Y-131.048
X164.2Y-135.025
X164.2Y-139.027
X164.2Y-143.05
X164.225Y-147.025
X169.825Y-140.3
T3
X151.55Y-103.0
X151.55Y-111.0
X154.09Y-103.0
X154.09Y-111.0
X156.63Y-103.0
X156.63Y-111.0
X159.17Y-103.0
X159.17Y-111.0
X161.66Y-117.45
X161.71Y-103.0
X161.71Y-111.0
X164.2Y-117.45
X164.25Y-103.0
X164.25Y-111.0
X166.79Y-103.0
X166.79Y-111.0
X169.33Y-103.0
X169.33Y-111.0
X181.85Y-103.76
X181.85Y-106.3
X181.85Y-108.84
X181.85Y-111.38
X181.85Y-113.92
T4
X172.51Y-129.75G85X173.39Y-129.75
G05
X172.51Y-143.35G85X173.39Y-143.35
G05
M30
